<svg xmlns="http://www.w3.org/2000/svg" xmlns:xlink="http://www.w3.org/1999/xlink" width="448" height="280" viewBox="0 0 224 140"><defs><path id="a" fill="#a3a3a3" d="M0 0h13.44v13.44H0z"/></defs><g id="b"><use x=".28" y=".28" fill-opacity=".048" xlink:href="#a"/><use x="14.28" y=".28" fill-opacity=".024" xlink:href="#a"/><use x="28.28" y=".28" fill-opacity=".072" xlink:href="#a"/><use x="42.28" y=".28" fill-opacity=".06" xlink:href="#a"/><use x="56.28" y=".28" fill-opacity=".024" xlink:href="#a"/><use x="70.28" y=".28" fill-opacity=".048" xlink:href="#a"/><use x="84.28" y=".28" fill-opacity=".084" xlink:href="#a"/><use x=".28" y="14.28" fill-opacity=".036" xlink:href="#a"/><use x="14.28" y="14.28" fill-opacity=".048" xlink:href="#a"/><use x="28.28" y="14.28" fill-opacity=".024" xlink:href="#a"/><use x="42.28" y="14.28" fill-opacity=".072" xlink:href="#a"/><use x="56.28" y="14.28" fill-opacity=".048" xlink:href="#a"/><use x="70.28" y="14.28" fill-opacity=".036" xlink:href="#a"/><use x="84.28" y="14.28" fill-opacity=".012" xlink:href="#a"/><use x="98.28" y="14.28" fill-opacity=".048" xlink:href="#a"/><use x=".28" y="28.28" fill-opacity=".036" xlink:href="#a"/><use x="14.28" y="28.28" fill-opacity=".024" xlink:href="#a"/><use x="28.28" y="28.28" fill-opacity=".072" xlink:href="#a"/><use x="42.28" y="28.28" fill-opacity=".024" xlink:href="#a"/><use x="56.28" y="28.28" fill-opacity=".072" xlink:href="#a"/><use x="70.28" y="28.28" fill-opacity=".048" xlink:href="#a"/><use x="84.28" y="28.28" fill-opacity=".036" xlink:href="#a"/><use x="98.28" y="28.28" fill-opacity=".084" xlink:href="#a"/><use x=".28" y="42.28" fill-opacity=".048" xlink:href="#a"/><use x="14.28" y="42.28" fill-opacity=".036" xlink:href="#a"/><use x="28.28" y="42.28" fill-opacity=".06" xlink:href="#a"/><use x="42.28" y="42.28" fill-opacity=".036" xlink:href="#a"/><use x="70.28" y="42.28" fill-opacity=".072" xlink:href="#a"/><use x="84.28" y="42.28" fill-opacity=".012" xlink:href="#a"/><use x="98.28" y="42.28" fill-opacity=".036" xlink:href="#a"/><use x=".28" y="56.28" fill-opacity=".012" xlink:href="#a"/><use x="14.28" y="56.28" fill-opacity=".072" xlink:href="#a"/><use x="28.28" y="56.28" fill-opacity=".036" xlink:href="#a"/><use x="42.28" y="56.28" fill-opacity=".06" xlink:href="#a"/><use x="56.28" y="56.28" fill-opacity=".024" xlink:href="#a"/><use x="84.28" y="56.28" fill-opacity=".06" xlink:href="#a"/><use x="98.28" y="56.28" fill-opacity=".024" xlink:href="#a"/></g><use x="-112" y="70" transform="scale(-1 1)" xlink:href="#b"/><use x="-224" y="-98" transform="rotate(180)" xlink:href="#b"/><use x="112" y="-168" transform="scale(1 -1)" xlink:href="#b"/><use x="112" y="-28" transform="scale(1 -1)" xlink:href="#b"/></svg>