<svg xmlns="http://www.w3.org/2000/svg" width="3655.09" height="187.392" viewBox="403.322 -1.13 3655.09 187.392"><circle cx="1630.185" cy="92.674" r="38.637"/><circle cx="2831.548" cy="92.674" r="38.637"/><path stroke="#231815" stroke-miterlimit="10" d="M2230.865 0l30.111 61.015 67.334 9.78-48.721 47.491 11.502 67.062-60.226-31.659-60.223 31.659 11.5-67.062-48.719-47.491 67.332-9.78z"/><path d="M1012.958 121.33l-16.544-28.656 16.544-28.656h33.09l16.545 28.656-16.545 28.656zm-596.887-6.24l-12.749-22.416 12.749-22.415h25.5l12.751 22.415-12.751 22.416zm2999.616 6.24l-16.547-28.656 16.547-28.656h33.086l16.547 28.656-16.547 28.656zm604.475-6.402l-12.751-22.256 12.751-22.252h25.496l12.753 22.252-12.753 22.256z"/></svg>