<svg id="レイヤー_1" xmlns="http://www.w3.org/2000/svg" viewBox="0 0 529.6 71"><style>.st0{display:none}.st1{display:inline;fill:#231815}.st2{fill:#fff}</style><g class="st0"><path class="st1" d="M1.8 52.3c-.5-.5-1-1.3-1.3-2.1-.3-.9-.5-1.9-.5-3s.3-2.7.8-4.6c.5-1.9 1.2-4.1 2-6.5l2.7-7.9c3.8-11 6-19.5 6.6-25.5.1-1.7 1-2.6 2.5-2.6 1 0 1.8.2 2.4.7 1.2.9 1.8 2 1.8 3.1s-.2 2.5-.6 4.2c-.4 1.6-.8 3.4-1.4 5.4-.6 1.9-1.2 4-2 6.1l-4.4 12.9c-2.5 7.3-3.8 12-3.8 14.2 0 1.1.5 1.7 1.4 1.7s1.7-.2 2.4-.6c.7-.4 1.2-.6 1.4-.6.4 0 .7.2.7.7 0 1.9-1 3.5-2.9 4.7-1.3.9-2.5 1.3-3.5 1.3s-1.9-.1-2.6-.4c-.6-.2-1.2-.6-1.7-1.2zm19.5-.8c-.9-.8-1.6-1.9-2.1-3.2s-.8-2.8-.8-4.6.2-3.6.6-5.4c.5-1.8 1.1-3.6 1.9-5.3.8-1.7 1.8-3.3 3-4.8s2.5-2.8 3.9-3.9c3.1-2.4 6.3-3.6 9.6-3.6 4.4 0 7.3 1.9 8.9 5.7 1.1 2.8 1.2 6.1.2 10.1-.9 3.6-2.5 6.9-4.9 10-2.3 3-5.1 5.2-8.3 6.4-1.6.6-3.2 1-4.7 1-1.6 0-2.9-.2-4.2-.6-1.1-.4-2.2-1-3.1-1.8zm6.1-15.4c-.6 1.6-1.1 3.2-1.5 4.8s-.5 3.2-.5 4.7.2 2.6.7 3.5c.4.8 1.1 1.3 2.1 1.3s1.9-.3 2.9-1c.9-.7 1.9-1.5 2.7-2.7s1.7-2.4 2.5-3.8 1.5-2.9 2.1-4.5c1.3-3.4 1.9-6.4 1.9-9.1 0-2.3-.5-3.8-1.4-4.4-.4-.3-.9-.4-1.6-.4s-1.5.3-2.4.9-1.8 1.5-2.7 2.5-1.7 2.3-2.6 3.7c-.8 1.4-1.6 2.9-2.2 4.5zm41 10.6c-3.2 4.8-6.8 7.2-10.7 7.2-3.5 0-5.9-1.9-7.1-5.6-.4-1.3-.6-2.9-.6-4.8s.3-3.8.8-5.7 1.3-3.7 2.2-5.4c.9-1.7 2-3.3 3.3-4.7 1.3-1.4 2.6-2.7 4-3.7 3-2.2 6-3.3 8.9-3.3s5.1 1.4 6.3 4.2c.3-.3.5-.6.7-.8.2-.3.4-.6.7-.8.6-.5 1-.8 1.4-.8s.8.1 1.3.2.9.3 1.3.6c1 .6 1.4 1.2 1.2 1.7-1.2 2.5-2.1 5-2.9 7.4l-4.7 15c-3.7 11.4-8.4 18.7-14.1 22-1.5.9-2.8 1.4-3.9 1.5-1.1.1-1.9.1-2.4 0s-.9-.3-1.3-.5c-.8-.5-1.2-1-1.2-1.4 0-.7.5-1.2 1.5-1.4 1-.2 2-.6 3.1-1.2s2.1-1.4 3.1-2.3c4-3.6 7-9.5 9.1-17.4zm-9.5-11c-.6 1.5-1 3.1-1.3 4.7s-.5 2.9-.5 3.9 0 1.8.1 2.3.2 1 .4 1.4c.4.9 1 1.3 1.9 1.3s1.6-.3 2.4-.9 1.7-1.4 2.5-2.4 1.8-2.2 2.7-3.6c.9-1.4 1.7-2.9 2.5-4.4 1.8-3.5 3-6.9 3.7-10.1-.1-.6-.5-1.2-1.1-1.8-1.2-1.2-2.3-1.7-3.3-1.7s-1.9.3-2.9.9-1.9 1.4-2.8 2.4-1.7 2.2-2.5 3.6c-.6 1.4-1.2 2.9-1.8 4.4zm26 16.8c-.5-.5-.9-1-1.1-1.6-.3-.6-.4-1.3-.4-2.1s.2-1.5.5-2.1.7-1.1 1.2-1.5c.8-.7 1.7-1 2.6-1s1.7.1 2.3.2 1.3.3 1.8.6c1.3.7 2 1.7 2 2.9 0 1.6-.5 3-1.6 4.2-1 1.1-2 1.7-3 1.8s-1.9 0-2.6-.2c-.7-.3-1.3-.7-1.7-1.2zm16.6-9.8c0-1.8.3-3.7.9-5.5.5-1.8 1.3-3.6 2.2-5.2.9-1.6 2-3.1 3.2-4.5s2.6-2.6 4-3.6c3-2.1 6.3-3.1 9.6-3.1 3.5 0 5.8 1.4 7.1 4.2.4 1 .6 2.1.6 3.4s-.2 2.4-.6 3.5c-.4 1-.9 2-1.4 2.8-1.3 1.9-2.6 2.8-3.9 2.8-1.5 0-2.5-.4-3.2-1.2-.6-.7-.8-1.5-.6-2.4.1-.3.3-.5.6-.7.3-.2.7-.6 1.2-1.1 1.4-1.4 2.1-3.1 2.2-5 0-1.3-.8-2-2.4-2-1.8 0-3.6 1-5.6 3-2.8 2.9-4.8 6.6-6 11.1-1 3.9-.8 6.8.6 8.6.8 1.1 1.9 1.6 3.4 1.6 2.4 0 4.7-.8 6.9-2.5.7-.5 1.2-1.1 1.7-1.6.4-.5.8-.8 1.2-.8.4 0 .7.2.9.5s.4.8.4 1.3c0 1.2-.6 2.5-1.7 3.7-2.9 2.8-6.3 4.1-10.4 4.1-3.4 0-6.1-1-8-3-2.1-2.1-3-4.8-2.9-8.4zm52.3-15.9c-1.2 0-3.2 1.8-6.3 5.3l-2.6 3.2-5.1 6.6c-1.2 2.3-2.2 4.3-2.9 5.8l-1.7 3.7c-.4.9-.8 1.5-1.2 1.9s-.8.6-1.3.6-1.1-.1-1.6-.3-1-.5-1.3-.8c-.8-.7-1.2-1.4-1.2-2.2 0-.3.2-.9.7-1.9l1.3-2.6c4-8.1 7.5-18.5 10.8-31 1.2-4.6 2-8.8 2.6-12.4.2-1.8 1.1-2.7 2.6-2.7 1 0 1.8.2 2.4.7 1.2.9 1.8 1.9 1.8 2.9s-.2 2.2-.4 3.5c-.3 1.3-.6 2.7-1 4.2s-.9 3.1-1.4 4.8c-1.4 4.3-2.4 7.3-3.1 9.2-2.1 5.7-3.4 9-3.8 10 .3-.4.7-.9 1.2-1.6 3.9-5.1 6.2-8.1 7.1-9.1.9-1 1.7-1.7 2.3-2.3 1.3-1.2 3-1.7 5.1-1.7 1.7 0 3 .6 4 1.7s1.4 2.3 1.4 3.5-.1 2.4-.4 3.5c-.3 1-.6 2.1-1.1 3.1-.4 1.1-.9 2.1-1.5 3.3l-1.6 3.3c-1.5 3.4-2.2 5.9-2.2 7.5 0 1.1.5 1.7 1.4 1.7s1.7-.2 2.4-.6 1.2-.6 1.4-.6c.4 0 .7.2.7.7 0 1.9-1 3.5-2.9 4.7-1.3.9-2.5 1.3-3.6 1.3s-2-.1-2.7-.3-1.3-.6-1.9-1.1c-1.2-1.1-1.9-2.8-1.9-5 0-2.4.8-5.4 2.3-9L154 31c.7-1.4 1-2.4 1-3.2.1-.6-.4-1-1.2-1zm15.1 24.7c-.9-.8-1.6-1.9-2.1-3.2s-.8-2.8-.8-4.6.2-3.6.6-5.4c.5-1.8 1.1-3.6 1.9-5.3.8-1.7 1.8-3.3 3-4.8s2.5-2.8 3.9-3.9c3.1-2.4 6.3-3.6 9.6-3.6 4.4 0 7.3 1.9 8.9 5.7 1.1 2.8 1.2 6.1.2 10.1-.9 3.6-2.5 6.9-4.9 10-2.3 3-5.1 5.2-8.3 6.4-1.6.6-3.2 1-4.7 1-1.6 0-2.9-.2-4.2-.6-1.2-.4-2.2-1-3.1-1.8zm6-15.4c-.6 1.6-1.1 3.2-1.5 4.8s-.5 3.2-.5 4.7.2 2.6.7 3.5c.4.8 1.1 1.3 2.1 1.3s1.9-.3 2.9-1c.9-.7 1.9-1.5 2.7-2.7s1.7-2.4 2.5-3.8 1.5-2.9 2.1-4.5c1.3-3.4 1.9-6.4 1.9-9.1 0-2.3-.5-3.8-1.4-4.4-.4-.3-.9-.4-1.6-.4s-1.5.3-2.4.9-1.8 1.5-2.7 2.5-1.7 2.3-2.6 3.7c-.8 1.4-1.5 2.9-2.2 4.5zm23.3 6.6c0-1.8.3-3.7.9-5.5.5-1.8 1.3-3.6 2.2-5.2s2-3.1 3.2-4.5 2.6-2.6 4-3.6c3-2.1 6.3-3.1 9.6-3.1 3.5 0 5.8 1.4 7.1 4.2.4 1 .6 2.1.6 3.4s-.2 2.4-.6 3.5c-.4 1-.9 2-1.4 2.8-1.3 1.9-2.6 2.8-3.9 2.8-1.5 0-2.5-.4-3.2-1.2-.6-.7-.8-1.5-.6-2.4.1-.3.3-.5.6-.7s.7-.6 1.2-1.1c1.4-1.4 2.1-3.1 2.2-5 0-1.3-.8-2-2.4-2-1.8 0-3.6 1-5.6 3-2.8 2.9-4.8 6.6-6 11.1-1 3.9-.8 6.8.6 8.6.8 1.1 1.9 1.6 3.4 1.6 2.4 0 4.7-.8 6.9-2.5.7-.5 1.2-1.1 1.6-1.6.4-.5.8-.8 1.2-.8s.7.2.9.5.4.8.4 1.3c0 1.2-.6 2.5-1.7 3.7-2.9 2.8-6.3 4.1-10.4 4.1-3.4 0-6.1-1-8-3-2-2.1-2.9-4.8-2.8-8.4zm33.3 8.8c-.9-.8-1.6-1.9-2.1-3.2s-.8-2.8-.8-4.6.2-3.6.6-5.4c.5-1.8 1.1-3.6 1.9-5.3.8-1.7 1.8-3.3 3-4.8s2.5-2.8 3.9-3.9c3.1-2.4 6.3-3.6 9.6-3.6 4.4 0 7.3 1.9 8.9 5.7 1.1 2.8 1.2 6.1.2 10.1-.9 3.6-2.5 6.9-4.9 10-2.4 3-5.1 5.2-8.3 6.4-1.6.6-3.2 1-4.7 1-1.6 0-2.9-.2-4.2-.6-1.1-.4-2.2-1-3.1-1.8zm6.1-15.4c-.6 1.6-1.1 3.2-1.5 4.8s-.5 3.2-.5 4.7.2 2.6.7 3.5c.4.8 1.1 1.3 2.1 1.3s1.9-.3 2.9-1c.9-.7 1.9-1.5 2.7-2.7s1.7-2.4 2.5-3.8 1.5-2.9 2.1-4.5c1.3-3.4 1.9-6.4 1.9-9.1 0-2.3-.5-3.8-1.4-4.4-.4-.3-.9-.4-1.6-.4s-1.5.3-2.4.9-1.8 1.5-2.7 2.5-1.7 2.3-2.6 3.7c-.8 1.4-1.6 2.9-2.2 4.5zm25 16.2c-.5-.5-1-1.3-1.3-2.1-.3-.9-.5-1.9-.5-3s.3-2.7.8-4.6c.5-1.9 1.2-4.1 2-6.5l2.7-7.9c3.8-11 6-19.5 6.6-25.5.2-1.8 1.1-2.7 2.6-2.7 1 0 1.8.2 2.4.7 1.2.9 1.8 2 1.8 3.1s-.2 2.5-.6 4.2-.8 3.4-1.4 5.4c-.6 1.9-1.2 4-2 6.1l-4.4 12.9c-2.5 7.3-3.8 12-3.8 14.2 0 1.1.5 1.7 1.4 1.7s1.7-.2 2.4-.6c.7-.4 1.2-.6 1.4-.6.4 0 .7.2.7.7 0 1.9-1 3.5-2.9 4.7-1.3.9-2.5 1.3-3.5 1.3s-1.9-.1-2.6-.4c-.7-.1-1.3-.5-1.8-1.1zm41.1-7.1c0 1.9.7 2.9 2.1 2.9 1 0 1.7-.1 2.4-.4.6-.3 1-.4 1.3-.4.4 0 .7.2.7.7 0 1.8-1 3.4-2.9 4.7-2 1.4-4.1 1.7-6.2 1-1.4-.5-2.4-1.5-3-3.1-.3-.8-.5-1.6-.5-2.3 0-1.1.1-2.3.3-3.5-2 4-4.4 6.8-7.3 8.3-1.2.6-2.4.9-3.7.9s-2.5-.3-3.4-.8c-1-.5-1.8-1.3-2.5-2.2-1.4-2-2-4.5-1.9-7.5.1-3.8 1.2-7.5 3.3-11.1 1.9-3.4 4.4-6.1 7.3-8.3s5.7-3.3 8.3-3.3c2.6 0 4.6 1.2 6.2 3.5 1.5-2.3 2.8-3.5 3.9-3.5 1.2 0 2.1.2 2.7.7 1.2.8 1.6 1.6 1.2 2.2-5.3 10.9-8 17.6-8.2 20.3-.1.3-.1.7-.1 1.2zm-17.6.1c0 2.5.8 3.8 2.4 3.8 1.2 0 2.8-1.1 4.6-3.2 2.7-3.1 5-7.3 7.1-12.6.7-1.6 1.2-3.3 1.6-5-.1-1.4-.7-2.5-1.8-3.2-.4-.2-.9-.3-1.7-.3-.8 0-1.6.3-2.6.8s-2 1.3-2.9 2.3-1.8 2.1-2.6 3.4c-.8 1.3-1.5 2.7-2.1 4.2-1.4 3.3-2 6.6-2 9.8zm45.7 0c.6 0 .9.4.9 1.2 0 .7-.2 1.4-.6 2-.6 1.2-1.7 2.4-3.4 3.5-1.9 1.2-3.9 1.9-5.9 1.9-3.4 0-5.6-1.5-6.5-4.6-1.1-3.6.5-11.3 4.9-23-2.4-.2-3.8-.6-4-1.3-.1-.2-.1-.4-.1-.6s.1-.5.3-.8c.2-.3.5-.6.8-.9.7-.6 1.5-.9 2.3-.9h2.5c2.3-5.4 3.9-8.4 4.9-9.1.5-.3 1-.5 1.6-.5s1 .1 1.4.2c.4.1.7.4 1 .6.7.6 1 1.3 1 2.1 0 .4-.1.9-.4 1.5l-2.4 5.1h7.3c.6 0 .9.2.9.7 0 2.8-3.3 4.2-9.9 4.2h-.3l-2.2 5.6c-2.4 6.6-3.6 11.2-3.6 13.9 0 .7.2 1.3.5 1.7s1 .6 1.9.6 1.8-.2 2.5-.5 1.4-.7 2-1.1 1.1-.7 1.5-1.1c.5-.2.8-.4 1.1-.4zm5.2-2.8c.1-1.8.4-3.6.9-5.3s1.2-3.3 2.1-4.9c.9-1.6 1.9-3.1 3.1-4.5s2.5-2.6 3.9-3.7c3-2.3 6.1-3.4 9.2-3.4 3.6 0 6 1.5 7.2 4.5.4 1 .6 2.2.6 3.6s-.3 2.7-.8 3.8c-.5 1.2-1.2 2.2-2.1 3.2s-2 1.8-3.2 2.6-2.6 1.4-4 1.9c-3 1.1-6.2 1.6-9.6 1.7-.1.3-.1.7-.2 1.3 0 .6 0 1.3.2 2 .1.7.4 1.4.8 2 .8 1.3 1.9 1.9 3.3 1.9 2.5 0 4.8-.7 7.2-2.2.8-.5 1.5-1 2-1.5s1-.8 1.3-.8.7.2 1 .7.4 1 .4 1.5c0 1.1-.3 2.1-1 2.9-2.7 2.7-6.6 4-11.9 4-3.1 0-5.6-.9-7.5-2.8-2-2-3-4.9-2.9-8.5zM355.5 25c-2.2 0-4.4 1.5-6.4 4.6-1.7 2.6-3.1 5.7-4.2 9.3 3.5-.4 6.6-1.8 9.2-4.2 2.4-2.3 3.6-4.5 3.6-6.6s-.7-3.1-2.2-3.1zm11.1 19.6c0-1.2.1-2.4.3-3.5.2-1.1.4-2.3.7-3.4.3-1.1.6-2.3 1-3.4l3.6-10.9c2.8-8.8 4.6-15.7 5.3-20.6.2-1.8 1.1-2.7 2.6-2.7.9 0 1.6.2 2.3.7 1.1.9 1.7 1.9 1.6 2.9 0 1-.2 2.2-.4 3.4-.3 1.3-.6 2.6-1 4.1s-.9 3-1.4 4.7c-1.4 4.2-2.5 7.2-3.2 9.1l-1.8 4.7c1.8-2.9 3.3-4.8 4.5-5.9 2.3-2.1 4.8-3.1 7.3-3.1 3.7 0 6.2 1.9 7.4 5.8.4 1.3.6 3 .6 5s-.3 4-.9 5.9c-.6 2-1.4 3.8-2.4 5.5s-2.2 3.2-3.5 4.6-2.7 2.5-4.2 3.5c-3.1 2-6.1 3-9 3s-5.2-.9-6.9-2.7c-1.6-1.8-2.5-4-2.5-6.7zm8.9 5.2c2 0 4-.9 6.1-2.7 3.1-2.7 5.2-6.6 6.3-11.6.4-1.7.5-3.4.5-5.2 0-1.8-.2-3-.6-3.8-.4-.7-1-1.1-1.9-1.1s-1.7.3-2.6 1-1.9 1.6-2.9 2.7-2 2.4-3 3.8c-1 1.5-1.9 2.9-2.6 4.5-1.7 3.4-2.6 6.3-2.6 8.7.2 2.5 1.2 3.7 3.3 3.7zm26 1.7c-.9-.8-1.6-1.9-2.1-3.2s-.8-2.8-.8-4.6.2-3.6.6-5.4c.5-1.8 1.1-3.6 1.9-5.3.8-1.7 1.8-3.3 3-4.8s2.5-2.8 3.9-3.9c3.1-2.4 6.3-3.6 9.6-3.6 4.4 0 7.3 1.9 8.9 5.7 1.1 2.8 1.2 6.1.2 10.1-.9 3.6-2.5 6.9-4.9 10-2.4 3-5.1 5.2-8.3 6.4-1.6.6-3.2 1-4.7 1-1.6 0-2.9-.2-4.2-.6-1.2-.4-2.2-1-3.1-1.8zm6-15.4c-.6 1.6-1.1 3.2-1.5 4.8s-.5 3.2-.5 4.7.2 2.6.7 3.5c.4.8 1.1 1.3 2.1 1.3s1.9-.3 2.9-1c.9-.7 1.9-1.5 2.7-2.7s1.7-2.4 2.5-3.8 1.5-2.9 2.1-4.5c1.3-3.4 1.9-6.4 1.9-9.1 0-2.3-.5-3.8-1.4-4.4-.4-.3-.9-.4-1.6-.4s-1.5.3-2.4.9-1.8 1.5-2.7 2.5c-.9 1.1-1.7 2.3-2.6 3.7-.8 1.4-1.5 2.9-2.2 4.5zm47 9.1c0 1.9.7 2.9 2.1 2.9 1 0 1.7-.1 2.4-.4.6-.3 1-.4 1.3-.4.4 0 .7.2.7.7 0 1.8-1 3.4-2.9 4.7-2 1.4-4.1 1.7-6.2 1-1.4-.5-2.4-1.5-3-3.1-.3-.8-.5-1.6-.5-2.3 0-1.1.1-2.3.3-3.5-2 4-4.4 6.8-7.3 8.3-1.2.6-2.4.9-3.7.9s-2.5-.3-3.4-.8c-1-.5-1.8-1.3-2.5-2.2-1.4-2-2-4.5-1.9-7.5.1-3.8 1.2-7.5 3.3-11.1 1.9-3.4 4.4-6.1 7.3-8.3s5.7-3.3 8.3-3.3c2.6 0 4.6 1.2 6.2 3.5 1.5-2.3 2.8-3.5 3.9-3.5 1.2 0 2.1.2 2.7.7 1.2.8 1.6 1.6 1.2 2.2-5.3 10.9-8 17.6-8.2 20.3-.1.3-.1.7-.1 1.2zm-17.7.1c0 2.5.8 3.8 2.4 3.8 1.2 0 2.8-1.1 4.6-3.2 2.7-3.1 5-7.3 7.1-12.6.7-1.6 1.2-3.3 1.6-5-.1-1.4-.7-2.5-1.8-3.2-.4-.2-.9-.3-1.7-.3-.8 0-1.6.3-2.6.8s-2 1.3-2.9 2.3-1.8 2.1-2.6 3.4c-.8 1.3-1.5 2.7-2.1 4.2-1.3 3.3-2 6.6-2 9.8zm28.5 7.5c-.4-.3-.8-.7-1-1.1s-.4-.7-.4-1 0-.6.2-1c.1-.4.3-.9.6-1.5 4.3-10.6 6.5-17.8 6.5-21.4-.1-1-.4-1.7-1-2.2l-.6-.4c-.2-.1-.3-.4-.3-.8s.1-.7.4-1.1c.3-.3.6-.6 1.1-.9.9-.5 1.8-.7 2.8-.7s1.7.1 2.3.3c.5.2 1 .5 1.4.9.8.8 1.2 1.6 1.2 2.4s-.1 1.7-.3 2.6c-.2.9-.4 1.7-.7 2.6s-.6 1.6-.8 2.4c-.3.8-.5 1.3-.5 1.7-.2.7-.2 1.2-.2 1.4.5-.4.8-.9.9-1.3l1.2-2.3c2.8-5 5.4-8.2 8.1-9.8.8-.4 1.7-.7 2.7-.7 1.1 0 1.9.4 2.6 1.1.7.8 1 1.6 1 2.5s0 1.7-.2 2.3c-.2.6-.4 1.2-.7 1.7-.7 1.2-1.5 1.8-2.5 1.8-.3 0-.5-.1-.8-.3l-.7-.6c-.7-.6-1.4-.9-2-.9s-1.4.4-2.3 1.3c-.9.8-1.9 1.9-2.9 3.3-3.3 4.4-6.1 9.4-8.2 14.9l-1.4 3.7c-.4.9-.7 1.6-1 2s-.7.6-1.2.6-1.1-.1-1.6-.3c-.8-.6-1.3-.8-1.7-1.2zm56.1-5.6c.4 0 .7.2.7.7 0 1.8-.9 3.4-2.8 4.7-1.2.9-2.4 1.3-3.5 1.3s-2-.1-2.7-.4c-.7-.3-1.2-.7-1.8-1.2-1.2-1.3-1.8-3-1.8-5.2 0-.4.1-1.2.3-2.1-1.7 2.6-3.2 4.5-4.4 5.6-2.5 2.2-4.9 3.4-7.3 3.4-3.7 0-6.2-1.7-7.4-5.1-.4-1.2-.6-2.8-.6-4.7s.3-3.8.9-5.7 1.3-3.8 2.3-5.5c1-1.7 2.1-3.3 3.4-4.8s2.7-2.8 4.1-3.9c3.1-2.3 5.9-3.5 8.4-3.5s4.5 1 6 3c3.7-12.6 6.5-20 8.3-22.3.8-.9 1.6-1.4 2.5-1.4 1.4 0 2.5.4 3.3 1.2.2.3.3.6.3.8s-.2.8-.5 1.5-.8 1.9-1.5 3.6c-1.9 5-3.2 8.6-4 10.9-1.9 5.9-3.3 10-3.9 12.2l-1.7 5.9c-1.5 5.2-2.3 8.5-2.3 10 0 1.4.5 2.1 1.6 2.1 1 0 1.7-.1 2.3-.4l1.2-.6c.1 0 .4-.1.6-.1zm-21.8 2c2.2 0 4.7-2.1 7.5-6.4 2.9-4.4 5-9.2 6.2-14.4-.1-1.4-.7-2.5-1.8-3.2-.4-.2-1-.3-1.7-.3s-1.7.3-2.7.8c-1 .6-2 1.3-3 2.3s-1.9 2.1-2.7 3.3c-.8 1.3-1.6 2.6-2.2 4.1-1.3 3.1-2 6.2-2 9.2-.1 3.1.7 4.6 2.4 4.6z"/></g><g class="st0"><path class="st1" d="M11.6 54.5l-8 .1V8.2h8v46.3zm35.6-17.7c0 7.6-1.4 12.7-4.3 15.3-2.4 2.2-5.9 3.3-10.5 3.3-5.9 0-9.8-1.7-11.9-5.2-1.9-3.2-2.9-7.6-2.9-13.4 0-5.4 1-9.7 2.9-12.7 2.1-3.4 6-5.2 11.7-5.2 5.6 0 9.6 1.5 11.8 4.5 2.1 3 3.2 7.5 3.2 13.4zm-8 1.8v-3.2c0-3-.4-5.4-1.3-7-.9-1.6-2.7-2.4-5.5-2.4-4.5 0-6.8 3-6.8 9.1v3.2c0 6.5 2.3 9.8 6.8 9.8 2.9 0 4.8-1.1 5.7-3.3.7-1.6 1.1-3.7 1.1-6.2zm32.2-19l8-.5v33.8c0 3.9-1.1 6.9-3.3 9-2.2 2.1-5.5 3.1-9.8 3.1-3.3 0-6.2-.7-8.7-2-1.3-.7-2.4-1.6-3.1-3-.8-1.3-1.2-2.9-1.2-4.7l7.5-.4c0 1.1.4 2 1.2 2.5s2.2.7 4.2.7 3.3-.5 4.1-1.5c.7-1 1.1-2.4 1.1-4.2l.3-5.3-8.7 4.7c-4.7 0-7.9-1.6-9.5-4.8-1.5-2.8-2.2-6.3-2.2-10.4 0-4.9.4-8.3 1.1-10.3.8-2.2 1.9-3.8 3.3-4.8 1.8-1.2 4.3-1.8 7.3-1.8h8.4v-.1zm0 20.6V26.8h-6.1c-2.3 0-3.9.8-4.7 2.3-.9 1.6-1.3 3.7-1.3 6.5s.4 4.8 1.3 5.9c.9 1.2 2.5 1.8 4.7 1.8l6.1-3.1zm24.7 6c.6.6 1 2 1 4 0 2.1-.3 3.4-1 4.1-.6.7-2 1-4 1-2.1 0-3.4-.3-4.1-1s-1-2-1-4.1.3-3.4 1-4 2-1 4.1-1c2 .1 3.4.4 4 1zm26.7-4.6l7.3-.1c0 .3-.1.9-.1 1.8s-.1 1.4-.1 1.8c0 .3-.1.8-.2 1.4-.1.7-.2 1.1-.3 1.4-.1.3-.2.7-.4 1.2-.7 2.1-2.8 3.8-6 5.1-2.1.7-4.3 1.1-6.6 1.1s-4.3-.4-6.2-1.1-3.3-1.7-4.4-2.8c-2.4-2.5-3.6-7.3-3.6-14.3s1.2-11.8 3.6-14.3c1.1-1.1 2.5-2.1 4.4-2.8 1.8-.7 3.9-1.1 6.2-1.1 4.4 0 7.8 1.1 10.1 3.3 2.3 2.2 3.4 5.3 3.4 9.2h-7.3c0-1.8-.5-3.2-1.4-4-.9-.9-2.6-1.3-5-1.3s-4.1.8-4.9 2.3-1.2 3.8-1.2 6.8v3.2c0 4.9.9 7.9 2.8 9 .9.5 2 .8 3.4.8s2.5-.1 3.4-.4c.9-.3 1.5-.7 1.9-1.4s.6-1.3.8-1.9c.3-.7.3-1.6.4-2.9zm40.9 12.9h-8v-22c0-3.8-1.5-5.7-4.4-5.7l-7.6 3v24.7h-8V8.2h8v15.3l10.2-4.6c3.6 0 6.2 1 7.7 3.1s2.2 4.9 2.2 8.6l-.1 23.9zm35.1-17.7c0 7.6-1.4 12.7-4.3 15.3-2.4 2.2-5.9 3.3-10.5 3.3-5.9 0-9.8-1.7-11.9-5.2-1.9-3.2-2.9-7.6-2.9-13.4 0-5.4 1-9.7 2.9-12.7 2.1-3.4 6-5.2 11.7-5.2 5.6 0 9.6 1.5 11.8 4.5 2.1 3 3.2 7.5 3.2 13.4zm-8 1.8v-3.2c0-3-.4-5.4-1.3-7-.9-1.6-2.7-2.4-5.5-2.4-4.5 0-6.8 3-6.8 9.1v3.2c0 6.5 2.3 9.8 6.8 9.8 2.9 0 4.8-1.1 5.7-3.3.7-1.6 1.1-3.7 1.1-6.2zm32.9 3l7.3-.1c0 .3-.1.9-.1 1.8s-.1 1.4-.1 1.8c0 .3-.1.8-.2 1.4-.1.7-.2 1.1-.3 1.4-.1.3-.2.7-.4 1.2-.7 2.1-2.8 3.8-6 5.1-2.1.7-4.3 1.1-6.6 1.1s-4.3-.4-6.2-1.1-3.3-1.7-4.4-2.8c-2.4-2.5-3.6-7.3-3.6-14.3s1.2-11.8 3.6-14.3c1.1-1.1 2.5-2.1 4.4-2.8 1.8-.7 3.9-1.1 6.2-1.1 4.4 0 7.8 1.1 10.1 3.3s3.4 5.3 3.4 9.2h-7.3c0-1.8-.5-3.2-1.4-4-.9-.9-2.6-1.3-5-1.3s-4.1.8-4.9 2.3c-.8 1.5-1.2 3.8-1.2 6.8v3.2c0 4.9.9 7.9 2.8 9 .9.5 2 .8 3.4.8s2.5-.1 3.4-.4c.9-.3 1.5-.7 1.9-1.4s.6-1.3.8-1.9c.3-.7.3-1.6.4-2.9zm41.1-4.8c0 7.6-1.4 12.7-4.3 15.3-2.4 2.2-5.9 3.3-10.5 3.3-5.9 0-9.8-1.7-11.9-5.2-1.9-3.2-2.9-7.6-2.9-13.4 0-5.4 1-9.7 2.9-12.7 2.1-3.4 6-5.2 11.7-5.2 5.6 0 9.6 1.5 11.8 4.5 2.1 3 3.2 7.5 3.2 13.4zm-8 1.8v-3.2c0-3-.4-5.4-1.3-7-.9-1.6-2.7-2.4-5.5-2.4-4.5 0-6.8 3-6.8 9.1v3.2c0 6.5 2.3 9.8 6.8 9.8 2.9 0 4.8-1.1 5.7-3.3.7-1.6 1.1-3.7 1.1-6.2zm22 15.9l-8 .1V8.2h8v46.3zm33.6 0H307l-2.5-4.2-8.6 4.6c-4.8 0-8-1.7-9.6-5.2-.8-1.7-1.4-3.5-1.7-5.5-.3-1.9-.5-4-.5-6.1s0-3.7.1-4.7c0-1 .1-2.2.3-3.5.2-1.3.4-2.5.7-3.4.3-.9.7-1.8 1.3-2.8.6-1 1.3-1.7 2.1-2.3 1.8-1.3 4.2-1.9 7.2-1.9h8.4l8-.5v35.5h.2zm-8-11.2V26.8h-6.1c-2.3 0-3.8.9-4.7 2.6-.9 1.7-1.3 4.3-1.3 7.7 0 3.4.4 5.8 1.3 7.2.8 1.4 2.4 2.1 4.8 2.1l6-3.1zm31 11.2h-5c-3 0-5.3-.9-6.9-2.7s-2.4-4-2.4-6.5V26.9h-3.4v-6.1h3.4v-6.9h8v6.9h5.7v6.1h-5.7v18c0 1.9.9 2.9 2.8 2.9h3.5v6.7zm32.2-15.7H347c0 3.2.5 5.5 1.5 7s3 2.2 6.1 2.2c2 0 3.4-.6 4.4-1.9.9-1.3 1.4-2.5 1.4-3.6h7.2c0 4.4-1.2 7.6-3.5 9.7-2.4 2.1-5.5 3.1-9.4 3.1s-6.9-.6-9-1.7c-4.4-2.3-6.6-8.3-6.6-18 0-5.8 1.3-10 3.8-12.7s6.3-4 11.5-4c8.9 0 13.4 4.9 13.4 14.8-.1 1.1-.2 2.8-.2 5.1zm-20.4-5.5h13.2c0-2.7-.5-4.7-1.5-5.9-1-1.2-2.6-1.8-4.7-1.8s-3.8.6-5.1 1.9c-1.2 1.2-1.9 3.1-1.9 5.8zm42.7 21.3l-7-.1c-3.1 0-5.4-.9-7-2.7s-2.4-4-2.4-6.5V8.2h8v15.5l9.5-4.4c3.7 0 6.3 1 8.1 3 1.5 1.8 2.5 4.6 2.8 8.6.1 1.6.2 3.7.2 6.1.1 11.7-4 17.6-12.2 17.6zm-6.3-6.9h3.9c4.4 0 6.7-3.6 6.7-10.8 0-3.7-.3-6.2-1-7.6s-2.1-2.2-4.4-2.2l-7.2 3.9v13.9c0 1.6.6 2.5 2 2.8zm52.9-10.9c0 7.6-1.4 12.7-4.3 15.3-2.4 2.2-5.9 3.3-10.5 3.3-5.9 0-9.8-1.7-11.9-5.2-1.9-3.2-2.9-7.6-2.9-13.4 0-5.4 1-9.7 2.9-12.7 2.1-3.4 6-5.2 11.7-5.2 5.6 0 9.6 1.5 11.8 4.5 2.1 3 3.2 7.5 3.2 13.4zm-8 1.8v-3.2c0-3-.4-5.4-1.3-7s-2.7-2.4-5.5-2.4c-4.5 0-6.8 3-6.8 9.1v3.2c0 6.5 2.3 9.8 6.8 9.8 2.9 0 4.8-1.1 5.7-3.3.7-1.6 1.1-3.7 1.1-6.2zm40 15.9h-5.4l-2.5-4.2-8.6 4.6c-4.8 0-8-1.7-9.6-5.2-.8-1.7-1.4-3.5-1.7-5.5-.3-1.9-.5-4-.5-6.1s0-3.7.1-4.7c0-1 .1-2.2.3-3.5.2-1.3.4-2.5.7-3.4.3-.9.7-1.8 1.3-2.8.6-1 1.3-1.7 2.1-2.3 1.8-1.3 4.2-1.9 7.2-1.9h8.4l8-.5v35.5h.2zm-8-11.2V26.8h-6.1c-2.3 0-3.8.9-4.7 2.6-.9 1.7-1.3 4.3-1.3 7.7 0 3.4.4 5.8 1.3 7.2.8 1.4 2.4 2.1 4.8 2.1l6-3.1zm35-23.8l-2.2 7.9c-.6-.2-1.3-.4-2.1-.4-2.1 0-4.6.9-7.6 2.6v24.9h-8V19.3h6l1.8 3.1 8.5-3.5c.4 0 1-.1 1.7-.1s1.3.2 1.9.7zm30.4 35h-5.4l-2.5-4.2-8.6 4.6c-4.8 0-8-1.7-9.6-5.2-.8-1.7-1.4-3.5-1.7-5.5-.3-1.9-.5-4-.5-6.1s0-3.7.1-4.7c0-1 .1-2.2.3-3.5.2-1.3.4-2.5.7-3.4.3-.9.7-1.8 1.3-2.8.6-1 1.3-1.7 2.1-2.3 1.8-1.3 4.2-1.9 7.2-1.9h8.4V8.2h8v46.3h.2zm-8-11.2V26.8h-6.1c-2.3 0-3.8.9-4.7 2.6-.9 1.7-1.3 4.3-1.3 7.7 0 3.4.4 5.8 1.3 7.2.8 1.4 2.4 2.1 4.8 2.1l6-3.1z"/></g><path class="st2" d="M20.8 52.4H2.1l.4-9.5-.4-22.4h8.1l-.5 21.7.1 3.7h11l.4.6-.4 5.9zm29.7-28.3c2.6 2.7 3.9 6.6 3.9 11.6 0 5.5-1.4 9.7-4.3 12.7-2.8 3-6.8 4.5-12 4.5-4.8 0-8.4-1.4-11-4.2-2.6-2.8-3.9-6.7-3.9-11.8 0-5.4 1.4-9.5 4.2-12.5 2.8-2.9 6.8-4.4 12-4.4 4.8 0 8.5 1.4 11.1 4.1zm-17.4 4.5c-1.1 1.4-1.7 3.8-1.7 7.3 0 2.8.2 5 .7 6.5.5 1.6 1.3 2.7 2.3 3.4 1.1.7 2.5 1 4.3 1 2.6 0 4.5-.7 5.6-2.1 1.1-1.4 1.7-3.8 1.7-7.3 0-2.8-.3-5-.8-6.5-.5-1.6-1.3-2.7-2.3-3.4-1.1-.7-2.5-1-4.4-1-2.4 0-4.3.7-5.4 2.1zm52.5-6.7L83.5 29h-.7c-1.6-.9-3.1-1.6-4.4-2-1.3-.4-2.7-.6-4.3-.6-2.9 0-5 .8-6.3 2.3-1.3 1.5-1.9 4.2-1.9 8 0 2.5.3 4.5.8 5.9.5 1.4 1.4 2.4 2.6 3.1 1.2.6 2.8.9 4.9.9 1.3 0 2.6-.3 4-.8v-2l-.1-5 7.3-.5-.1 4.2v8.2c-4.1 1.4-8 2.1-11.6 2.1-5.3 0-9.3-1.4-12-4.1-2.7-2.7-4-6.6-4-11.6 0-5.5 1.6-9.8 4.7-12.7 3.1-2.9 7.5-4.4 13.2-4.4 3.5.1 6.9.7 10 1.9zM98 45c.7.8 1.1 1.8 1.1 3.2 0 1.4-.4 2.6-1.2 3.4-.8.8-1.9 1.3-3.3 1.3s-2.4-.4-3.2-1.1c-.7-.8-1.1-1.8-1.1-3.2s.4-2.5 1.2-3.3c.8-.8 1.9-1.3 3.4-1.3 1.4-.1 2.4.2 3.1 1zm29.3-23.3l-1.4 6.7-.6.3c-2.1-1.4-4.5-2.1-7.3-2.1-2.6 0-4.5.7-5.7 2.2-1.3 1.5-1.9 3.8-1.9 7 0 6.9 2.7 10.4 8 10.4 2.6 0 5.2-.6 7.6-1.9l.7.4-.6 6.6c-2.5 1-5.2 1.5-8.1 1.5-5.2 0-9.1-1.4-11.8-4.2-2.7-2.8-4-6.8-4-12 0-5.3 1.4-9.4 4.3-12.3 2.9-2.9 6.9-4.4 12.2-4.4 3 .2 5.9.7 8.6 1.8zm33.4 30.7h-7.9l.3-9.5-.1-3.1-7.1-.1-6.4.1-.1 2.3.3 10.2h-7.9l.3-9.5-.3-22.4h8.1l-.3 12.6 6.7.1 6.6-.1-.2-12.7h8.1l-.4 21.6.3 10.5zm32.4-28.3c2.6 2.7 3.9 6.6 3.9 11.6 0 5.5-1.4 9.7-4.3 12.7-2.8 3-6.8 4.5-12 4.5-4.8 0-8.4-1.4-11-4.2-2.6-2.8-3.9-6.7-3.9-11.8 0-5.4 1.4-9.5 4.2-12.5 2.8-2.9 6.8-4.4 12-4.4 4.8 0 8.5 1.4 11.1 4.1zm-17.4 4.5c-1.1 1.4-1.7 3.8-1.7 7.3 0 2.8.2 5 .7 6.5.5 1.6 1.3 2.7 2.3 3.4 1.1.7 2.5 1 4.3 1 2.6 0 4.5-.7 5.6-2.1 1.1-1.4 1.7-3.8 1.7-7.3 0-2.8-.3-5-.8-6.5-.5-1.6-1.3-2.7-2.3-3.4-1.1-.7-2.5-1-4.4-1-2.4 0-4.3.7-5.4 2.1zm49.9-6.9l-1.4 6.7-.6.3c-2.1-1.4-4.5-2.1-7.3-2.1-2.6 0-4.5.7-5.7 2.2-1.3 1.5-1.9 3.8-1.9 7 0 6.9 2.7 10.4 8 10.4 2.6 0 5.2-.6 7.6-1.9l.7.4-.6 6.6c-2.5 1-5.2 1.5-8.1 1.5-5.2 0-9.1-1.4-11.8-4.2-2.7-2.8-4-6.8-4-12 0-5.3 1.4-9.4 4.3-12.3 2.9-2.9 6.9-4.4 12.2-4.4 2.9.2 5.8.7 8.6 1.8zm29.4 2.4c2.6 2.7 3.9 6.6 3.9 11.6 0 5.5-1.4 9.7-4.3 12.7-2.8 3-6.8 4.5-12 4.5-4.8 0-8.4-1.4-11-4.2-2.6-2.8-3.9-6.7-3.9-11.8 0-5.4 1.4-9.5 4.2-12.5 2.8-2.9 6.8-4.4 12-4.4 4.8 0 8.5 1.4 11.1 4.1zm-17.4 4.5c-1.1 1.4-1.7 3.8-1.7 7.3 0 2.8.2 5 .7 6.5.5 1.6 1.3 2.7 2.3 3.4 1.1.7 2.5 1 4.3 1 2.6 0 4.5-.7 5.6-2.1 1.1-1.4 1.7-3.8 1.7-7.3 0-2.8-.3-5-.8-6.5-.5-1.6-1.3-2.7-2.3-3.4-1.1-.7-2.5-1-4.4-1-2.4 0-4.3.7-5.4 2.1zm45 23.8h-18.7l.4-9.5-.4-22.4h8.1l-.4 21.6.1 3.7h11l.4.6-.5 6zm25.3 0l-.9-4.6-.6-1.8-6.4-.1-5.7.1-.4 1.3-.9 5h-7.8l11.2-31.8h9.4L316 52.3h-8.1zm-6.8-24.6h-.5L296.4 40l4.1.1 4.2-.1-3.6-12.2zm38.1-.6l-6.4-.4H331l-.2 15.4.3 10.2h-7.9l.3-9.5-.1-16.1h-1.8l-6.6.4-.5-.6.4-6.1h24.3l.4.6-.4 6.1zm27 19.3l-.6 5.9h-21.8l.3-9.5-.3-22.4H366l.4.6-.5 5.9-8.2-.3h-5.9l-.1 6.4 5.7.1 5.5-.2.4.6-.5 6-6-.2h-5.2l-.1 2.8.1 4h5.5l8.6-.3.5.6zm30.6-3.2c0 6.2-5.3 9.3-15.8 9.3-2.3 0-5.6-.1-9.8-.3l.3-9.5-.3-22.4 12.8-.1c3.5 0 6.3.7 8.3 2.1 2 1.4 3 3.4 3 6 0 3.4-1.7 5.9-5.1 7.4 4.4 1.2 6.6 3.6 6.6 7.5zm-8.2-.4c0-1-.4-1.8-1.1-2.4-.7-.6-1.8-1.1-3.3-1.4l-5.5.1-.1 2.9.1 4.7c1.3.1 2.5.2 3.5.2 4.4.1 6.4-1.3 6.4-4.1zm-2.9-16c-.9-.5-2.5-.8-4.8-.8h-2l-.1 7.5 4.6.1c1.2-.3 2.1-.8 2.7-1.4.6-.6.9-1.6.9-2.8.1-1.2-.4-2.1-1.3-2.6zm41.7-2.8c2.6 2.7 3.9 6.6 3.9 11.6 0 5.5-1.4 9.7-4.3 12.7-2.8 3-6.8 4.5-12 4.5-4.8 0-8.4-1.4-11-4.2-2.6-2.8-3.9-6.7-3.9-11.8 0-5.4 1.4-9.5 4.2-12.5 2.8-2.9 6.8-4.4 12-4.4 4.8 0 8.5 1.4 11.1 4.1zM410 28.6c-1.1 1.4-1.7 3.8-1.7 7.3 0 2.8.2 5 .7 6.5.5 1.6 1.3 2.7 2.3 3.4 1.1.7 2.5 1 4.3 1 2.6 0 4.5-.7 5.6-2.1 1.1-1.4 1.7-3.8 1.7-7.3 0-2.8-.3-5-.8-6.5-.5-1.6-1.3-2.7-2.3-3.4-1.1-.7-2.5-1-4.4-1-2.4 0-4.3.7-5.4 2.1zm44.7 23.8l-.9-4.6-.6-1.8-6.4-.1-5.7.1-.4 1.3-.9 5H432l11.2-31.8h9.4l10.2 31.8h-8.1zM448 27.8h-.5L443.3 40l4.1.1 4.2-.1-3.6-12.2zm45.9 22.7l-.1.9c-2.6.8-5.2 1.3-7.7 1.5l-1.1-.8c-2.4-4.1-4.2-7.5-5.5-10h-4.9v.1l.3 10.2H467l.3-9.5-.3-22.4 13.7-.1c3.6 0 6.3.8 8.3 2.5 2 1.7 2.9 4 2.9 7.1 0 2-.5 3.8-1.6 5.5-1.1 1.7-2.5 3.1-4.4 4.3 2.9 4.1 5.5 7.7 8 10.7zm-14.4-14.2c2.8-.9 4.2-2.7 4.2-5.4 0-1.5-.4-2.6-1.3-3.4-.9-.7-2.3-1.1-4.2-1.2l-3.2.1-.2 9.6 4.7.3zm44-12.1c2.6 2.6 3.9 6.3 3.9 11.1 0 5.6-1.5 10-4.4 13-3 3-7.2 4.5-12.8 4.5-3.2 0-7.3-.1-12-.4l.3-9.5-.3-22.4 14-.3c4.9.1 8.6 1.4 11.3 4zm-4.3 12.9c0-3.7-.6-6.4-1.8-8-1.2-1.6-3.2-2.4-5.9-2.4-2 0-3.8.1-5.4.3l-.3 15.3.1 4.1c2.2.3 4.1.4 5.7.4 5.1-.1 7.6-3.3 7.6-9.7z"/></svg>