<?xml version="1.0" encoding="utf-8"?>
<!-- Generator: Adobe Illustrator 16.0.0, SVG Export Plug-In . SVG Version: 6.00 Build 0)  -->
<!DOCTYPE svg PUBLIC "-//W3C//DTD SVG 1.1//EN" "http://www.w3.org/Graphics/SVG/1.1/DTD/svg11.dtd">
<svg version="1.1" id="eleHr" xmlns="http://www.w3.org/2000/svg" xmlns:xlink="http://www.w3.org/1999/xlink" x="0px" y="0px" width="3655.09px" height="187.392px" viewBox="403.322 -1.13 3655.09 187.392" enable-background="new 403.322 -1.13 3655.09 187.392" xml:space="preserve">
<circle cx="1630.185" cy="92.674" r="38.637"/>
<circle cx="2831.548" cy="92.674" r="38.637"/>
<polygon stroke="#231815" stroke-miterlimit="10" points="2230.865,0 2260.976,61.015 2328.31,70.795 2279.589,118.286 2291.091,185.348 2230.865,153.689 2170.642,185.348 2182.142,118.286 2133.423,70.795 2200.755,61.015 "/>
<polygon points="1012.958,121.33 996.414,92.674 1012.958,64.018 1046.048,64.018 1062.593,92.674 1046.048,121.33 "/>
<polygon points="416.071,115.09 403.322,92.674 416.071,70.259 441.571,70.259 454.322,92.674 441.571,115.09 "/>
<polygon points="3415.687,121.33 3399.14,92.674 3415.687,64.018 3448.773,64.018 3465.32,92.674 3448.773,121.33 "/>
<polygon points="4020.162,114.928 4007.411,92.672 4020.162,70.42 4045.658,70.42 4058.411,92.672 4045.658,114.928 "/>
</svg>
