<?xml version="1.0" encoding="utf-8"?>
<!-- Generator: Adobe Illustrator 19.2.1, SVG Export Plug-In . SVG Version: 6.00 Build 0)  -->
<svg version="1.1" id="レイヤー_1" xmlns="http://www.w3.org/2000/svg" xmlns:xlink="http://www.w3.org/1999/xlink" x="0px"
	 y="0px" viewBox="0 0 529.6 71" style="enable-background:new 0 0 529.6 71;" xml:space="preserve">
<style type="text/css">
	.st0{display:none;}
	.st1{display:inline;fill:#231815;}
	.st2{fill:#FFFFFF;}
</style>
<g class="st0">
	<path class="st1" d="M1.8,52.3c-0.5-0.5-1-1.3-1.3-2.1c-0.3-0.9-0.5-1.9-0.5-3s0.3-2.7,0.8-4.6c0.5-1.9,1.2-4.1,2-6.5l2.7-7.9
		c3.8-11,6-19.5,6.6-25.5c0.1-1.7,1-2.6,2.5-2.6c1,0,1.8,0.2,2.4,0.7c1.2,0.9,1.8,2,1.8,3.1s-0.2,2.5-0.6,4.2
		c-0.4,1.6-0.8,3.4-1.4,5.4c-0.6,1.9-1.2,4-2,6.1l-4.4,12.9c-2.5,7.3-3.8,12-3.8,14.2c0,1.1,0.5,1.7,1.4,1.7s1.7-0.2,2.4-0.6
		c0.7-0.4,1.2-0.6,1.4-0.6c0.4,0,0.7,0.2,0.7,0.7c0,1.9-1,3.5-2.9,4.7c-1.3,0.9-2.5,1.3-3.5,1.3s-1.9-0.1-2.6-0.4
		C2.9,53.3,2.3,52.9,1.8,52.3z"/>
	<path class="st1" d="M21.3,51.5c-0.9-0.8-1.6-1.9-2.1-3.2s-0.8-2.8-0.8-4.6s0.2-3.6,0.6-5.4c0.5-1.8,1.1-3.6,1.9-5.3
		c0.8-1.7,1.8-3.3,3-4.8s2.5-2.8,3.9-3.9c3.1-2.4,6.3-3.6,9.6-3.6c4.4,0,7.3,1.9,8.9,5.7c1.1,2.8,1.2,6.1,0.2,10.1
		c-0.9,3.6-2.5,6.9-4.9,10c-2.3,3-5.1,5.2-8.3,6.4c-1.6,0.6-3.2,1-4.7,1c-1.6,0-2.9-0.2-4.2-0.6C23.3,52.9,22.2,52.3,21.3,51.5z
		 M27.4,36.1c-0.6,1.6-1.1,3.2-1.5,4.8s-0.5,3.2-0.5,4.7s0.2,2.6,0.7,3.5c0.4,0.8,1.1,1.3,2.1,1.3s1.9-0.3,2.9-1
		c0.9-0.7,1.9-1.5,2.7-2.7s1.7-2.4,2.5-3.8c0.8-1.4,1.5-2.9,2.1-4.5c1.3-3.4,1.9-6.4,1.9-9.1c0-2.3-0.5-3.8-1.4-4.4
		c-0.4-0.3-0.9-0.4-1.6-0.4s-1.5,0.3-2.4,0.9s-1.8,1.5-2.7,2.5s-1.7,2.3-2.6,3.7C28.8,33,28,34.5,27.4,36.1z"/>
	<path class="st1" d="M68.4,46.7c-3.2,4.8-6.8,7.2-10.7,7.2c-3.5,0-5.9-1.9-7.1-5.6C50.2,47,50,45.4,50,43.5s0.3-3.8,0.8-5.7
		s1.3-3.7,2.2-5.4c0.9-1.7,2-3.3,3.3-4.7c1.3-1.4,2.6-2.7,4-3.7c3-2.2,6-3.3,8.9-3.3s5.1,1.4,6.3,4.2c0.3-0.3,0.5-0.6,0.7-0.8
		c0.2-0.3,0.4-0.6,0.7-0.8c0.6-0.5,1-0.8,1.4-0.8s0.8,0.1,1.3,0.2s0.9,0.3,1.3,0.6c1,0.6,1.4,1.2,1.2,1.7c-1.2,2.5-2.1,5-2.9,7.4
		l-4.7,15c-3.7,11.4-8.4,18.7-14.1,22c-1.5,0.9-2.8,1.4-3.9,1.5c-1.1,0.1-1.9,0.1-2.4,0s-0.9-0.3-1.3-0.5c-0.8-0.5-1.2-1-1.2-1.4
		c0-0.7,0.5-1.2,1.5-1.4c1-0.2,2-0.6,3.1-1.2s2.1-1.4,3.1-2.3C63.3,60.5,66.3,54.6,68.4,46.7z M58.9,35.7c-0.6,1.5-1,3.1-1.3,4.7
		s-0.5,2.9-0.5,3.9s0,1.8,0.1,2.3s0.2,1,0.4,1.4c0.4,0.9,1,1.3,1.9,1.3s1.6-0.3,2.4-0.9s1.7-1.4,2.5-2.4s1.8-2.2,2.7-3.6
		c0.9-1.4,1.7-2.9,2.5-4.4c1.8-3.5,3-6.9,3.7-10.1c-0.1-0.6-0.5-1.2-1.1-1.8c-1.2-1.2-2.3-1.7-3.3-1.7S67,24.7,66,25.3
		s-1.9,1.4-2.8,2.4s-1.7,2.2-2.5,3.6C60.1,32.7,59.5,34.2,58.9,35.7z"/>
	<path class="st1" d="M84.9,52.5c-0.5-0.5-0.9-1-1.1-1.6c-0.3-0.6-0.4-1.3-0.4-2.1s0.2-1.5,0.5-2.1s0.7-1.1,1.2-1.5
		c0.8-0.7,1.7-1,2.6-1s1.7,0.1,2.3,0.2s1.3,0.3,1.8,0.6c1.3,0.7,2,1.7,2,2.9c0,1.6-0.5,3-1.6,4.2c-1,1.1-2,1.7-3,1.8s-1.9,0-2.6-0.2
		C85.9,53.4,85.3,53,84.9,52.5z"/>
	<path class="st1" d="M101.5,42.7c0-1.8,0.3-3.7,0.9-5.5c0.5-1.8,1.3-3.6,2.2-5.2c0.9-1.6,2-3.1,3.2-4.5s2.6-2.6,4-3.6
		c3-2.1,6.3-3.1,9.6-3.1c3.5,0,5.8,1.4,7.1,4.2c0.4,1,0.6,2.1,0.6,3.4s-0.2,2.4-0.6,3.5c-0.4,1-0.9,2-1.4,2.8
		c-1.3,1.9-2.6,2.8-3.9,2.8c-1.5,0-2.5-0.4-3.2-1.2c-0.6-0.7-0.8-1.5-0.6-2.4c0.1-0.3,0.3-0.5,0.6-0.7c0.3-0.2,0.7-0.6,1.2-1.1
		c1.4-1.4,2.1-3.1,2.2-5c0-1.3-0.8-2-2.4-2c-1.8,0-3.6,1-5.6,3c-2.8,2.9-4.8,6.6-6,11.1c-1,3.9-0.8,6.8,0.6,8.6
		c0.8,1.1,1.9,1.6,3.4,1.6c2.4,0,4.7-0.8,6.9-2.5c0.7-0.5,1.2-1.1,1.7-1.6c0.4-0.5,0.8-0.8,1.2-0.8c0.4,0,0.7,0.2,0.9,0.5
		s0.4,0.8,0.4,1.3c0,1.2-0.6,2.5-1.7,3.7c-2.9,2.8-6.3,4.1-10.4,4.1c-3.4,0-6.1-1-8-3C102.3,49,101.4,46.3,101.5,42.7z"/>
	<path class="st1" d="M153.8,26.8c-1.2,0-3.2,1.8-6.3,5.3l-2.6,3.2l-5.1,6.6c-1.2,2.3-2.2,4.3-2.9,5.8l-1.7,3.7
		c-0.4,0.9-0.8,1.5-1.2,1.9s-0.8,0.6-1.3,0.6s-1.1-0.1-1.6-0.3s-1-0.5-1.3-0.8c-0.8-0.7-1.2-1.4-1.2-2.2c0-0.3,0.2-0.9,0.7-1.9
		l1.3-2.6c4-8.1,7.5-18.5,10.8-31c1.2-4.6,2-8.8,2.6-12.4c0.2-1.8,1.1-2.7,2.6-2.7c1,0,1.8,0.2,2.4,0.7c1.2,0.9,1.8,1.9,1.8,2.9
		s-0.2,2.2-0.4,3.5c-0.3,1.3-0.6,2.7-1,4.2s-0.9,3.1-1.4,4.8c-1.4,4.3-2.4,7.3-3.1,9.2c-2.1,5.7-3.4,9-3.8,10
		c0.3-0.4,0.7-0.9,1.2-1.6c3.9-5.1,6.2-8.1,7.1-9.1c0.9-1,1.7-1.7,2.3-2.3c1.3-1.2,3-1.7,5.1-1.7c1.7,0,3,0.6,4,1.7s1.4,2.3,1.4,3.5
		s-0.1,2.4-0.4,3.5c-0.3,1-0.6,2.1-1.1,3.1c-0.4,1.1-0.9,2.1-1.5,3.3l-1.6,3.3c-1.5,3.4-2.2,5.9-2.2,7.5c0,1.1,0.5,1.7,1.4,1.7
		s1.7-0.2,2.4-0.6s1.2-0.6,1.4-0.6c0.4,0,0.7,0.2,0.7,0.7c0,1.9-1,3.5-2.9,4.7c-1.3,0.9-2.5,1.3-3.6,1.3s-2-0.1-2.7-0.3
		s-1.3-0.6-1.9-1.1c-1.2-1.1-1.9-2.8-1.9-5c0-2.4,0.8-5.4,2.3-9L154,31c0.7-1.4,1-2.4,1-3.2C155.1,27.2,154.6,26.8,153.8,26.8z"/>
	<path class="st1" d="M168.9,51.5c-0.9-0.8-1.6-1.9-2.1-3.2s-0.8-2.8-0.8-4.6s0.2-3.6,0.6-5.4c0.5-1.8,1.1-3.6,1.9-5.3
		c0.8-1.7,1.8-3.3,3-4.8s2.5-2.8,3.9-3.9c3.1-2.4,6.3-3.6,9.6-3.6c4.4,0,7.3,1.9,8.9,5.7c1.1,2.8,1.2,6.1,0.2,10.1
		c-0.9,3.6-2.5,6.9-4.9,10c-2.3,3-5.1,5.2-8.3,6.4c-1.6,0.6-3.2,1-4.7,1c-1.6,0-2.9-0.2-4.2-0.6C170.8,52.9,169.8,52.3,168.9,51.5z
		 M174.9,36.1c-0.6,1.6-1.1,3.2-1.5,4.8s-0.5,3.2-0.5,4.7s0.2,2.6,0.7,3.5c0.4,0.8,1.1,1.3,2.1,1.3s1.9-0.3,2.9-1
		c0.9-0.7,1.9-1.5,2.7-2.7s1.7-2.4,2.5-3.8c0.8-1.4,1.5-2.9,2.1-4.5c1.3-3.4,1.9-6.4,1.9-9.1c0-2.3-0.5-3.8-1.4-4.4
		c-0.4-0.3-0.9-0.4-1.6-0.4s-1.5,0.3-2.4,0.9s-1.8,1.5-2.7,2.5s-1.7,2.3-2.6,3.7C176.3,33,175.6,34.5,174.9,36.1z"/>
	<path class="st1" d="M198.2,42.7c0-1.8,0.3-3.7,0.9-5.5c0.5-1.8,1.3-3.6,2.2-5.2s2-3.1,3.2-4.5s2.6-2.6,4-3.6
		c3-2.1,6.3-3.1,9.6-3.1c3.5,0,5.8,1.4,7.1,4.2c0.4,1,0.6,2.1,0.6,3.4s-0.2,2.4-0.6,3.5c-0.4,1-0.9,2-1.4,2.8
		c-1.3,1.9-2.6,2.8-3.9,2.8c-1.5,0-2.5-0.4-3.2-1.2c-0.6-0.7-0.8-1.5-0.6-2.4c0.1-0.3,0.3-0.5,0.6-0.7s0.7-0.6,1.2-1.1
		c1.4-1.4,2.1-3.1,2.2-5c0-1.3-0.8-2-2.4-2c-1.8,0-3.6,1-5.6,3c-2.8,2.9-4.8,6.6-6,11.1c-1,3.9-0.8,6.8,0.6,8.6
		c0.8,1.1,1.9,1.6,3.4,1.6c2.4,0,4.7-0.8,6.9-2.5c0.7-0.5,1.2-1.1,1.6-1.6c0.4-0.5,0.8-0.8,1.2-0.8s0.7,0.2,0.9,0.5s0.4,0.8,0.4,1.3
		c0,1.2-0.6,2.5-1.7,3.7c-2.9,2.8-6.3,4.1-10.4,4.1c-3.4,0-6.1-1-8-3C199,49,198.1,46.3,198.2,42.7z"/>
	<path class="st1" d="M231.5,51.5c-0.9-0.8-1.6-1.9-2.1-3.2s-0.8-2.8-0.8-4.6s0.2-3.6,0.6-5.4c0.5-1.8,1.1-3.6,1.9-5.3
		c0.8-1.7,1.8-3.3,3-4.8s2.5-2.8,3.9-3.9c3.1-2.4,6.3-3.6,9.6-3.6c4.4,0,7.3,1.9,8.9,5.7c1.1,2.8,1.2,6.1,0.2,10.1
		c-0.9,3.6-2.5,6.9-4.9,10c-2.4,3-5.1,5.2-8.3,6.4c-1.6,0.6-3.2,1-4.7,1c-1.6,0-2.9-0.2-4.2-0.6C233.5,52.9,232.4,52.3,231.5,51.5z
		 M237.6,36.1c-0.6,1.6-1.1,3.2-1.5,4.8s-0.5,3.2-0.5,4.7s0.2,2.6,0.7,3.5c0.4,0.8,1.1,1.3,2.1,1.3s1.9-0.3,2.9-1
		c0.9-0.7,1.9-1.5,2.7-2.7s1.7-2.4,2.5-3.8s1.5-2.9,2.1-4.5c1.3-3.4,1.9-6.4,1.9-9.1c0-2.3-0.5-3.8-1.4-4.4
		c-0.4-0.3-0.9-0.4-1.6-0.4s-1.5,0.3-2.4,0.9s-1.8,1.5-2.7,2.5s-1.7,2.3-2.6,3.7C239,33,238.2,34.5,237.6,36.1z"/>
	<path class="st1" d="M262.6,52.3c-0.5-0.5-1-1.3-1.3-2.1c-0.3-0.9-0.5-1.9-0.5-3s0.3-2.7,0.8-4.6c0.5-1.9,1.2-4.1,2-6.5l2.7-7.9
		c3.8-11,6-19.5,6.6-25.5c0.2-1.8,1.1-2.7,2.6-2.7c1,0,1.8,0.2,2.4,0.7c1.2,0.9,1.8,2,1.8,3.1s-0.2,2.5-0.6,4.2s-0.8,3.4-1.4,5.4
		c-0.6,1.9-1.2,4-2,6.1l-4.4,12.9c-2.5,7.3-3.8,12-3.8,14.2c0,1.1,0.5,1.7,1.4,1.7s1.7-0.2,2.4-0.6c0.7-0.4,1.2-0.6,1.4-0.6
		c0.4,0,0.7,0.2,0.7,0.7c0,1.9-1,3.5-2.9,4.7c-1.3,0.9-2.5,1.3-3.5,1.3s-1.9-0.1-2.6-0.4C263.7,53.3,263.1,52.9,262.6,52.3z"/>
	<path class="st1" d="M303.7,45.2c0,1.9,0.7,2.9,2.1,2.9c1,0,1.7-0.1,2.4-0.4c0.6-0.3,1-0.4,1.3-0.4c0.4,0,0.7,0.2,0.7,0.7
		c0,1.8-1,3.4-2.9,4.7c-2,1.4-4.1,1.7-6.2,1c-1.4-0.5-2.4-1.5-3-3.1c-0.3-0.8-0.5-1.6-0.5-2.3c0-1.1,0.1-2.3,0.3-3.5
		c-2,4-4.4,6.8-7.3,8.3c-1.2,0.6-2.4,0.9-3.7,0.9s-2.5-0.3-3.4-0.8c-1-0.5-1.8-1.3-2.5-2.2c-1.4-2-2-4.5-1.9-7.5
		c0.1-3.8,1.2-7.5,3.3-11.1c1.9-3.4,4.4-6.1,7.3-8.3s5.7-3.3,8.3-3.3c2.6,0,4.6,1.2,6.2,3.5c1.5-2.3,2.8-3.5,3.9-3.5
		c1.2,0,2.1,0.2,2.7,0.7c1.2,0.8,1.6,1.6,1.2,2.2c-5.3,10.9-8,17.6-8.2,20.3C303.7,44.3,303.7,44.7,303.7,45.2z M286.1,45.3
		c0,2.5,0.8,3.8,2.4,3.8c1.2,0,2.8-1.1,4.6-3.2c2.7-3.1,5-7.3,7.1-12.6c0.7-1.6,1.2-3.3,1.6-5c-0.1-1.4-0.7-2.5-1.8-3.2
		c-0.4-0.2-0.9-0.3-1.7-0.3c-0.8,0-1.6,0.3-2.6,0.8s-2,1.3-2.9,2.3s-1.8,2.1-2.6,3.4c-0.8,1.3-1.5,2.7-2.1,4.2
		C286.7,38.8,286.1,42.1,286.1,45.3z"/>
	<path class="st1" d="M331.8,45.3c0.6,0,0.9,0.4,0.9,1.2c0,0.7-0.2,1.4-0.6,2c-0.6,1.2-1.7,2.4-3.4,3.5c-1.9,1.2-3.9,1.9-5.9,1.9
		c-3.4,0-5.6-1.5-6.5-4.6c-1.1-3.6,0.5-11.3,4.9-23c-2.4-0.2-3.8-0.6-4-1.3c-0.1-0.2-0.1-0.4-0.1-0.6s0.1-0.5,0.3-0.8
		c0.2-0.3,0.5-0.6,0.8-0.9c0.7-0.6,1.5-0.9,2.3-0.9h2.5c2.3-5.4,3.9-8.4,4.9-9.1c0.5-0.3,1-0.5,1.6-0.5s1,0.1,1.4,0.2
		c0.4,0.1,0.7,0.4,1,0.6c0.7,0.6,1,1.3,1,2.1c0,0.4-0.1,0.9-0.4,1.5l-2.4,5.1h0.8c1.3,0,2.4,0,3.2,0h1.8c0.4,0,0.9,0,1.5,0
		s0.9,0.2,0.9,0.7c0,2.8-3.3,4.2-9.9,4.2h-0.3l-2.2,5.6c-2.4,6.6-3.6,11.2-3.6,13.9c0,0.7,0.2,1.3,0.5,1.7s1,0.6,1.9,0.6
		s1.8-0.2,2.5-0.5s1.4-0.7,2-1.1s1.1-0.7,1.5-1.1C331.2,45.5,331.5,45.3,331.8,45.3z"/>
	<path class="st1" d="M337,42.5c0.1-1.8,0.4-3.6,0.9-5.3s1.2-3.3,2.1-4.9c0.9-1.6,1.9-3.1,3.1-4.5s2.5-2.6,3.9-3.7
		c3-2.3,6.1-3.4,9.2-3.4c3.6,0,6,1.5,7.2,4.5c0.4,1,0.6,2.2,0.6,3.6s-0.3,2.7-0.8,3.8c-0.5,1.2-1.2,2.2-2.1,3.2s-2,1.8-3.2,2.6
		s-2.6,1.4-4,1.9c-3,1.1-6.2,1.6-9.6,1.7c-0.1,0.3-0.1,0.7-0.2,1.3c0,0.6,0,1.3,0.2,2c0.1,0.7,0.4,1.4,0.8,2
		c0.8,1.3,1.9,1.9,3.3,1.9c2.5,0,4.8-0.7,7.2-2.2c0.8-0.5,1.5-1,2-1.5s1-0.8,1.3-0.8s0.7,0.2,1,0.7s0.4,1,0.4,1.5
		c0,1.1-0.3,2.1-1,2.9c-2.7,2.7-6.6,4-11.9,4c-3.1,0-5.6-0.9-7.5-2.8C337.9,49,336.9,46.1,337,42.5z M355.5,25
		c-2.2,0-4.4,1.5-6.4,4.6c-1.7,2.6-3.1,5.7-4.2,9.3c3.5-0.4,6.6-1.8,9.2-4.2c2.4-2.3,3.6-4.5,3.6-6.6S357,25,355.5,25z"/>
	<path class="st1" d="M366.6,44.6c0-1.2,0.1-2.4,0.3-3.5c0.2-1.1,0.4-2.3,0.7-3.4c0.3-1.1,0.6-2.3,1-3.4l3.6-10.9
		c2.8-8.8,4.6-15.7,5.3-20.6c0.2-1.8,1.1-2.7,2.6-2.7c0.9,0,1.6,0.2,2.3,0.7c1.1,0.9,1.7,1.9,1.6,2.9c0,1-0.2,2.2-0.4,3.4
		c-0.3,1.3-0.6,2.6-1,4.1s-0.9,3-1.4,4.7c-1.4,4.2-2.5,7.2-3.2,9.1l-1.8,4.7c1.8-2.9,3.3-4.8,4.5-5.9c2.3-2.1,4.8-3.1,7.3-3.1
		c3.7,0,6.2,1.9,7.4,5.8c0.4,1.3,0.6,3,0.6,5s-0.3,4-0.9,5.9c-0.6,2-1.4,3.8-2.4,5.5s-2.2,3.2-3.5,4.6S386.5,50,385,51
		c-3.1,2-6.1,3-9,3s-5.2-0.9-6.9-2.7C367.5,49.5,366.6,47.3,366.6,44.6z M375.5,49.8c2,0,4-0.9,6.1-2.7c3.1-2.7,5.2-6.6,6.3-11.6
		c0.4-1.7,0.5-3.4,0.5-5.2c0-1.8-0.2-3-0.6-3.8c-0.4-0.7-1-1.1-1.9-1.1s-1.7,0.3-2.6,1s-1.9,1.6-2.9,2.7s-2,2.4-3,3.8
		c-1,1.5-1.9,2.9-2.6,4.5c-1.7,3.4-2.6,6.3-2.6,8.7C372.4,48.6,373.4,49.8,375.5,49.8z"/>
	<path class="st1" d="M401.5,51.5c-0.9-0.8-1.6-1.9-2.1-3.2s-0.8-2.8-0.8-4.6s0.2-3.6,0.6-5.4c0.5-1.8,1.1-3.6,1.9-5.3
		c0.8-1.7,1.8-3.3,3-4.8s2.5-2.8,3.9-3.9c3.1-2.4,6.3-3.6,9.6-3.6c4.4,0,7.3,1.9,8.9,5.7c1.1,2.8,1.2,6.1,0.2,10.1
		c-0.9,3.6-2.5,6.9-4.9,10c-2.4,3-5.1,5.2-8.3,6.4c-1.6,0.6-3.2,1-4.7,1c-1.6,0-2.9-0.2-4.2-0.6C403.4,52.9,402.4,52.3,401.5,51.5z
		 M407.5,36.1c-0.6,1.6-1.1,3.2-1.5,4.8s-0.5,3.2-0.5,4.7s0.2,2.6,0.7,3.5c0.4,0.8,1.1,1.3,2.1,1.3s1.9-0.3,2.9-1
		c0.9-0.7,1.9-1.5,2.7-2.7s1.7-2.4,2.5-3.8c0.8-1.4,1.5-2.9,2.1-4.5c1.3-3.4,1.9-6.4,1.9-9.1c0-2.3-0.5-3.8-1.4-4.4
		c-0.4-0.3-0.9-0.4-1.6-0.4s-1.5,0.3-2.4,0.9s-1.8,1.5-2.7,2.5c-0.9,1.1-1.7,2.3-2.6,3.7C408.9,33,408.2,34.5,407.5,36.1z"/>
	<path class="st1" d="M454.5,45.2c0,1.9,0.7,2.9,2.1,2.9c1,0,1.7-0.1,2.4-0.4c0.6-0.3,1-0.4,1.3-0.4c0.4,0,0.7,0.2,0.7,0.7
		c0,1.8-1,3.4-2.9,4.7c-2,1.4-4.1,1.7-6.2,1c-1.4-0.5-2.4-1.5-3-3.1c-0.3-0.8-0.5-1.6-0.5-2.3c0-1.1,0.1-2.3,0.3-3.5
		c-2,4-4.4,6.8-7.3,8.3c-1.2,0.6-2.4,0.9-3.7,0.9s-2.5-0.3-3.4-0.8c-1-0.5-1.8-1.3-2.5-2.2c-1.4-2-2-4.5-1.9-7.5
		c0.1-3.8,1.2-7.5,3.3-11.1c1.9-3.4,4.4-6.1,7.3-8.3s5.7-3.3,8.3-3.3c2.6,0,4.6,1.2,6.2,3.5c1.5-2.3,2.8-3.5,3.9-3.5
		c1.2,0,2.1,0.2,2.7,0.7c1.2,0.8,1.6,1.6,1.2,2.2c-5.3,10.9-8,17.6-8.2,20.3C454.5,44.3,454.5,44.7,454.5,45.2z M436.8,45.3
		c0,2.5,0.8,3.8,2.4,3.8c1.2,0,2.8-1.1,4.6-3.2c2.7-3.1,5-7.3,7.1-12.6c0.7-1.6,1.2-3.3,1.6-5c-0.1-1.4-0.7-2.5-1.8-3.2
		c-0.4-0.2-0.9-0.3-1.7-0.3c-0.8,0-1.6,0.3-2.6,0.8s-2,1.3-2.9,2.3s-1.8,2.1-2.6,3.4c-0.8,1.3-1.5,2.7-2.1,4.2
		C437.5,38.8,436.8,42.1,436.8,45.3z"/>
	<path class="st1" d="M465.3,52.8c-0.4-0.3-0.8-0.7-1-1.1s-0.4-0.7-0.4-1s0-0.6,0.2-1c0.1-0.4,0.3-0.9,0.6-1.5
		c4.3-10.6,6.5-17.8,6.5-21.4c-0.1-1-0.4-1.7-1-2.2l-0.6-0.4c-0.2-0.1-0.3-0.4-0.3-0.8s0.1-0.7,0.4-1.1c0.3-0.3,0.6-0.6,1.1-0.9
		c0.9-0.5,1.8-0.7,2.8-0.7s1.7,0.1,2.3,0.3c0.5,0.2,1,0.5,1.4,0.9c0.8,0.8,1.2,1.6,1.2,2.4s-0.1,1.7-0.3,2.6
		c-0.2,0.9-0.4,1.7-0.7,2.6s-0.6,1.6-0.8,2.4c-0.3,0.8-0.5,1.3-0.5,1.7c-0.2,0.7-0.2,1.2-0.2,1.4c0.5-0.4,0.8-0.9,0.9-1.3l1.2-2.3
		c2.8-5,5.4-8.2,8.1-9.8c0.8-0.4,1.7-0.7,2.7-0.7c1.1,0,1.9,0.4,2.6,1.1c0.7,0.8,1,1.6,1,2.5s0,1.7-0.2,2.3
		c-0.2,0.6-0.4,1.2-0.7,1.7c-0.7,1.2-1.5,1.8-2.5,1.8c-0.3,0-0.5-0.1-0.8-0.3l-0.7-0.6c-0.7-0.6-1.4-0.9-2-0.9s-1.4,0.4-2.3,1.3
		c-0.9,0.8-1.9,1.9-2.9,3.3c-3.3,4.4-6.1,9.4-8.2,14.9l-1.4,3.7c-0.4,0.9-0.7,1.6-1,2s-0.7,0.6-1.2,0.6s-1.1-0.1-1.6-0.3
		C466.2,53.4,465.7,53.2,465.3,52.8z"/>
	<path class="st1" d="M521.4,47.2c0.4,0,0.7,0.2,0.7,0.7c0,1.8-0.9,3.4-2.8,4.7c-1.2,0.9-2.4,1.3-3.5,1.3s-2-0.1-2.7-0.4
		c-0.7-0.3-1.2-0.7-1.8-1.2c-1.2-1.3-1.8-3-1.8-5.2c0-0.4,0.1-1.2,0.3-2.1c-1.7,2.6-3.2,4.5-4.4,5.6c-2.5,2.2-4.9,3.4-7.3,3.4
		c-3.7,0-6.2-1.7-7.4-5.1c-0.4-1.2-0.6-2.8-0.6-4.7s0.3-3.8,0.9-5.7s1.3-3.8,2.3-5.5c1-1.7,2.1-3.3,3.4-4.8s2.7-2.8,4.1-3.9
		c3.1-2.3,5.9-3.5,8.4-3.5s4.5,1,6,3c3.7-12.6,6.5-20,8.3-22.3c0.8-0.9,1.6-1.4,2.5-1.4c1.4,0,2.5,0.4,3.3,1.2
		c0.2,0.3,0.3,0.6,0.3,0.8s-0.2,0.8-0.5,1.5s-0.8,1.9-1.5,3.6c-1.9,5-3.2,8.6-4,10.9c-1.9,5.9-3.3,10-3.9,12.2l-1.7,5.9
		c-1.5,5.2-2.3,8.5-2.3,10c0,1.4,0.5,2.1,1.6,2.1c1,0,1.7-0.1,2.3-0.4l1.2-0.6C520.9,47.3,521.2,47.2,521.4,47.2z M499.6,49.2
		c2.2,0,4.7-2.1,7.5-6.4c2.9-4.4,5-9.2,6.2-14.4c-0.1-1.4-0.7-2.5-1.8-3.2c-0.4-0.2-1-0.3-1.7-0.3s-1.7,0.3-2.7,0.8
		c-1,0.6-2,1.3-3,2.3s-1.9,2.1-2.7,3.3c-0.8,1.3-1.6,2.6-2.2,4.1c-1.3,3.1-2,6.2-2,9.2C497.1,47.7,497.9,49.2,499.6,49.2z"/>
</g>
<g class="st0">
	<path class="st1" d="M11.6,54.5l-8,0.1V8.2h8V54.5z"/>
	<path class="st1" d="M47.2,36.8c0,7.6-1.4,12.7-4.3,15.3c-2.4,2.2-5.9,3.3-10.5,3.3c-5.9,0-9.8-1.7-11.9-5.2
		c-1.9-3.2-2.9-7.6-2.9-13.4c0-5.4,1-9.7,2.9-12.7c2.1-3.4,6-5.2,11.7-5.2c5.6,0,9.6,1.5,11.8,4.5C46.1,26.4,47.2,30.9,47.2,36.8z
		 M39.2,38.6v-3.2c0-3-0.4-5.4-1.3-7C37,26.8,35.2,26,32.4,26c-4.5,0-6.8,3-6.8,9.1v3.2c0,6.5,2.3,9.8,6.8,9.8
		c2.9,0,4.8-1.1,5.7-3.3C38.8,43.2,39.2,41.1,39.2,38.6z"/>
	<path class="st1" d="M71.4,19.6l8-0.5v33.8c0,3.9-1.1,6.9-3.3,9C73.9,64,70.6,65,66.3,65c-3.3,0-6.2-0.7-8.7-2
		c-1.3-0.7-2.4-1.6-3.1-3c-0.8-1.3-1.2-2.9-1.2-4.7l7.5-0.4c0,1.1,0.4,2,1.2,2.5s2.2,0.7,4.2,0.7s3.3-0.5,4.1-1.5
		c0.7-1,1.1-2.4,1.1-4.2l0.3-5.3L63,51.8c-4.7,0-7.9-1.6-9.5-4.8c-1.5-2.8-2.2-6.3-2.2-10.4c0-4.9,0.4-8.3,1.1-10.3
		c0.8-2.2,1.9-3.8,3.3-4.8c1.8-1.2,4.3-1.8,7.3-1.8h8.4V19.6z M71.4,40.2V26.8h-6.1c-2.3,0-3.9,0.8-4.7,2.3
		c-0.9,1.6-1.3,3.7-1.3,6.5s0.4,4.8,1.3,5.9c0.9,1.2,2.5,1.8,4.7,1.8L71.4,40.2z"/>
	<path class="st1" d="M96.1,46.2c0.6,0.6,1,2,1,4c0,2.1-0.3,3.4-1,4.1c-0.6,0.7-2,1-4,1c-2.1,0-3.4-0.3-4.1-1s-1-2-1-4.1
		s0.3-3.4,1-4s2-1,4.1-1C94.1,45.3,95.5,45.6,96.1,46.2z"/>
	<path class="st1" d="M122.8,41.6l7.3-0.1c0,0.3-0.1,0.9-0.1,1.8c0,0.9-0.1,1.4-0.1,1.8c0,0.3-0.1,0.8-0.2,1.4
		c-0.1,0.7-0.2,1.1-0.3,1.4c-0.1,0.3-0.2,0.7-0.4,1.2c-0.7,2.1-2.8,3.8-6,5.1c-2.1,0.7-4.3,1.1-6.6,1.1s-4.3-0.4-6.2-1.1
		s-3.3-1.7-4.4-2.8c-2.4-2.5-3.6-7.3-3.6-14.3s1.2-11.8,3.6-14.3c1.1-1.1,2.5-2.1,4.4-2.8c1.8-0.7,3.9-1.1,6.2-1.1
		c4.4,0,7.8,1.1,10.1,3.3c2.3,2.2,3.4,5.3,3.4,9.2h-7.3c0-1.8-0.5-3.2-1.4-4c-0.9-0.9-2.6-1.3-5-1.3s-4.1,0.8-4.9,2.3
		s-1.2,3.8-1.2,6.8v3.2c0,4.9,0.9,7.9,2.8,9c0.9,0.5,2,0.8,3.4,0.8s2.5-0.1,3.4-0.4c0.9-0.3,1.5-0.7,1.9-1.4s0.6-1.3,0.8-1.9
		C122.7,43.8,122.7,42.9,122.8,41.6z"/>
	<path class="st1" d="M163.7,54.5h-8v-22c0-3.8-1.5-5.7-4.4-5.7l-7.6,3v24.7h-8V8.2h8v15.3l10.2-4.6c3.6,0,6.2,1,7.7,3.1
		s2.2,4.9,2.2,8.6L163.7,54.5L163.7,54.5z"/>
	<path class="st1" d="M198.8,36.8c0,7.6-1.4,12.7-4.3,15.3c-2.4,2.2-5.9,3.3-10.5,3.3c-5.9,0-9.8-1.7-11.9-5.2
		c-1.9-3.2-2.9-7.6-2.9-13.4c0-5.4,1-9.7,2.9-12.7c2.1-3.4,6-5.2,11.7-5.2c5.6,0,9.6,1.5,11.8,4.5C197.7,26.4,198.8,30.9,198.8,36.8
		z M190.8,38.6v-3.2c0-3-0.4-5.4-1.3-7c-0.9-1.6-2.7-2.4-5.5-2.4c-4.5,0-6.8,3-6.8,9.1v3.2c0,6.5,2.3,9.8,6.8,9.8
		c2.9,0,4.8-1.1,5.7-3.3C190.4,43.2,190.8,41.1,190.8,38.6z"/>
	<path class="st1" d="M223.7,41.6l7.3-0.1c0,0.3-0.1,0.9-0.1,1.8c0,0.9-0.1,1.4-0.1,1.8c0,0.3-0.1,0.8-0.2,1.4
		c-0.1,0.7-0.2,1.1-0.3,1.4c-0.1,0.3-0.2,0.7-0.4,1.2c-0.7,2.1-2.8,3.8-6,5.1c-2.1,0.7-4.3,1.1-6.6,1.1s-4.3-0.4-6.2-1.1
		s-3.3-1.7-4.4-2.8c-2.4-2.5-3.6-7.3-3.6-14.3s1.2-11.8,3.6-14.3c1.1-1.1,2.5-2.1,4.4-2.8c1.8-0.7,3.9-1.1,6.2-1.1
		c4.4,0,7.8,1.1,10.1,3.3s3.4,5.3,3.4,9.2h-7.3c0-1.8-0.5-3.2-1.4-4c-0.9-0.9-2.6-1.3-5-1.3s-4.1,0.8-4.9,2.3
		c-0.8,1.5-1.2,3.8-1.2,6.8v3.2c0,4.9,0.9,7.9,2.8,9c0.9,0.5,2,0.8,3.4,0.8s2.5-0.1,3.4-0.4c0.9-0.3,1.5-0.7,1.9-1.4
		s0.6-1.3,0.8-1.9C223.6,43.8,223.6,42.9,223.7,41.6z"/>
	<path class="st1" d="M264.8,36.8c0,7.6-1.4,12.7-4.3,15.3c-2.4,2.2-5.9,3.3-10.5,3.3c-5.9,0-9.8-1.7-11.9-5.2
		c-1.9-3.2-2.9-7.6-2.9-13.4c0-5.4,1-9.7,2.9-12.7c2.1-3.4,6-5.2,11.7-5.2c5.6,0,9.6,1.5,11.8,4.5C263.7,26.4,264.8,30.9,264.8,36.8
		z M256.8,38.6v-3.2c0-3-0.4-5.4-1.3-7c-0.9-1.6-2.7-2.4-5.5-2.4c-4.5,0-6.8,3-6.8,9.1v3.2c0,6.5,2.3,9.8,6.8,9.8
		c2.9,0,4.8-1.1,5.7-3.3C256.4,43.2,256.8,41.1,256.8,38.6z"/>
	<path class="st1" d="M278.8,54.5l-8,0.1V8.2h8V54.5z"/>
	<path class="st1" d="M312.4,54.5H307l-2.5-4.2l-8.6,4.6c-4.8,0-8-1.7-9.6-5.2c-0.8-1.7-1.4-3.5-1.7-5.5c-0.3-1.9-0.5-4-0.5-6.1
		s0-3.7,0.1-4.7c0-1,0.1-2.2,0.3-3.5c0.2-1.3,0.4-2.5,0.7-3.4c0.3-0.9,0.7-1.8,1.3-2.8c0.6-1,1.3-1.7,2.1-2.3
		c1.8-1.3,4.2-1.9,7.2-1.9h8.4l8-0.5v35.5H312.4z M304.4,43.3V26.8h-6.1c-2.3,0-3.8,0.9-4.7,2.6c-0.9,1.7-1.3,4.3-1.3,7.7
		c0,3.4,0.4,5.8,1.3,7.2c0.8,1.4,2.4,2.1,4.8,2.1L304.4,43.3z"/>
	<path class="st1" d="M335.4,54.5h-5c-3,0-5.3-0.9-6.9-2.7s-2.4-4-2.4-6.5V26.9h-3.4v-6.1h3.4v-6.9h8v6.9h5.7v6.1h-5.7v18
		c0,1.9,0.9,2.9,2.8,2.9h3.5V54.5z"/>
	<path class="st1" d="M367.6,38.8H347c0,3.2,0.5,5.5,1.5,7s3,2.2,6.1,2.2c2,0,3.4-0.6,4.4-1.9c0.9-1.3,1.4-2.5,1.4-3.6h7.2
		c0,4.4-1.2,7.6-3.5,9.7c-2.4,2.1-5.5,3.1-9.4,3.1s-6.9-0.6-9-1.7c-4.4-2.3-6.6-8.3-6.6-18c0-5.8,1.3-10,3.8-12.7s6.3-4,11.5-4
		c8.9,0,13.4,4.9,13.4,14.8C367.7,34.8,367.6,36.5,367.6,38.8z M347.2,33.3h13.2c0-2.7-0.5-4.7-1.5-5.9c-1-1.2-2.6-1.8-4.7-1.8
		s-3.8,0.6-5.1,1.9C347.9,28.7,347.2,30.6,347.2,33.3z"/>
	<path class="st1" d="M389.9,54.6l-7-0.1c-3.1,0-5.4-0.9-7-2.7s-2.4-4-2.4-6.5V8.2h8v15.5l9.5-4.4c3.7,0,6.3,1,8.1,3
		c1.5,1.8,2.5,4.6,2.8,8.6c0.1,1.6,0.2,3.7,0.2,6.1C402.2,48.7,398.1,54.6,389.9,54.6z M383.6,47.7h3.9c4.4,0,6.7-3.6,6.7-10.8
		c0-3.7-0.3-6.2-1-7.6s-2.1-2.2-4.4-2.2l-7.2,3.9v13.9C381.6,46.5,382.2,47.4,383.6,47.7z"/>
	<path class="st1" d="M436.5,36.8c0,7.6-1.4,12.7-4.3,15.3c-2.4,2.2-5.9,3.3-10.5,3.3c-5.9,0-9.8-1.7-11.9-5.2
		c-1.9-3.2-2.9-7.6-2.9-13.4c0-5.4,1-9.7,2.9-12.7c2.1-3.4,6-5.2,11.7-5.2c5.6,0,9.6,1.5,11.8,4.5C435.4,26.4,436.5,30.9,436.5,36.8
		z M428.5,38.6v-3.2c0-3-0.4-5.4-1.3-7s-2.7-2.4-5.5-2.4c-4.5,0-6.8,3-6.8,9.1v3.2c0,6.5,2.3,9.8,6.8,9.8c2.9,0,4.8-1.1,5.7-3.3
		C428.1,43.2,428.5,41.1,428.5,38.6z"/>
	<path class="st1" d="M468.5,54.5h-5.4l-2.5-4.2l-8.6,4.6c-4.8,0-8-1.7-9.6-5.2c-0.8-1.7-1.4-3.5-1.7-5.5c-0.3-1.9-0.5-4-0.5-6.1
		s0-3.7,0.1-4.7c0-1,0.1-2.2,0.3-3.5c0.2-1.3,0.4-2.5,0.7-3.4c0.3-0.9,0.7-1.8,1.3-2.8c0.6-1,1.3-1.7,2.1-2.3
		c1.8-1.3,4.2-1.9,7.2-1.9h8.4l8-0.5v35.5H468.5z M460.5,43.3V26.8h-6.1c-2.3,0-3.8,0.9-4.7,2.6c-0.9,1.7-1.3,4.3-1.3,7.7
		c0,3.4,0.4,5.8,1.3,7.2c0.8,1.4,2.4,2.1,4.8,2.1L460.5,43.3z"/>
	<path class="st1" d="M495.5,19.5l-2.2,7.9c-0.6-0.2-1.3-0.4-2.1-0.4c-2.1,0-4.6,0.9-7.6,2.6v24.9h-8V19.3h6l1.8,3.1l8.5-3.5
		c0.4,0,1-0.1,1.7-0.1S494.9,19,495.5,19.5z"/>
	<path class="st1" d="M525.9,54.5h-5.4l-2.5-4.2l-8.6,4.6c-4.8,0-8-1.7-9.6-5.2c-0.8-1.7-1.4-3.5-1.7-5.5c-0.3-1.9-0.5-4-0.5-6.1
		s0-3.7,0.1-4.7c0-1,0.1-2.2,0.3-3.5c0.2-1.3,0.4-2.5,0.7-3.4c0.3-0.9,0.7-1.8,1.3-2.8c0.6-1,1.3-1.7,2.1-2.3
		c1.8-1.3,4.2-1.9,7.2-1.9h8.4V8.2h8v46.3H525.9z M517.9,43.3V26.8h-6.1c-2.3,0-3.8,0.9-4.7,2.6c-0.9,1.7-1.3,4.3-1.3,7.7
		c0,3.4,0.4,5.8,1.3,7.2c0.8,1.4,2.4,2.1,4.8,2.1L517.9,43.3z"/>
</g>
<g>
	<path class="st2" d="M20.8,52.4H2.1l0.4-9.5L2.1,20.5h8.1L9.7,42.2l0.1,3.7h11l0.4,0.6L20.8,52.4z"/>
	<path class="st2" d="M50.5,24.1c2.6,2.7,3.9,6.6,3.9,11.6c0,5.5-1.4,9.7-4.3,12.7c-2.8,3-6.8,4.5-12,4.5c-4.8,0-8.4-1.4-11-4.2
		c-2.6-2.8-3.9-6.7-3.9-11.8c0-5.4,1.4-9.5,4.2-12.5c2.8-2.9,6.8-4.4,12-4.4C44.2,20,47.9,21.4,50.5,24.1z M33.1,28.6
		c-1.1,1.4-1.7,3.8-1.7,7.3c0,2.8,0.2,5,0.7,6.5c0.5,1.6,1.3,2.7,2.3,3.4c1.1,0.7,2.5,1,4.3,1c2.6,0,4.5-0.7,5.6-2.1
		c1.1-1.4,1.7-3.8,1.7-7.3c0-2.8-0.3-5-0.8-6.5c-0.5-1.6-1.3-2.7-2.3-3.4c-1.1-0.7-2.5-1-4.4-1C36.1,26.5,34.2,27.2,33.1,28.6z"/>
	<path class="st2" d="M85.6,21.9L83.5,29h-0.7c-1.6-0.9-3.1-1.6-4.4-2c-1.3-0.4-2.7-0.6-4.3-0.6c-2.9,0-5,0.8-6.3,2.3
		c-1.3,1.5-1.9,4.2-1.9,8c0,2.5,0.3,4.5,0.8,5.9c0.5,1.4,1.4,2.4,2.6,3.1c1.2,0.6,2.8,0.9,4.9,0.9c1.3,0,2.6-0.3,4-0.8v-2l-0.1-5
		l7.3-0.5l-0.1,4.2v8.2c-4.1,1.4-8,2.1-11.6,2.1c-5.3,0-9.3-1.4-12-4.1c-2.7-2.7-4-6.6-4-11.6c0-5.5,1.6-9.8,4.7-12.7
		c3.1-2.9,7.5-4.4,13.2-4.4C79.1,20.1,82.5,20.7,85.6,21.9z"/>
	<path class="st2" d="M98,45c0.7,0.8,1.1,1.8,1.1,3.2c0,1.4-0.4,2.6-1.2,3.4c-0.8,0.8-1.9,1.3-3.3,1.3c-1.4,0-2.4-0.4-3.2-1.1
		c-0.7-0.8-1.1-1.8-1.1-3.2s0.4-2.5,1.2-3.3c0.8-0.8,1.9-1.3,3.4-1.3C96.3,43.9,97.3,44.2,98,45z"/>
	<path class="st2" d="M127.3,21.7l-1.4,6.7l-0.6,0.3c-2.1-1.4-4.5-2.1-7.3-2.1c-2.6,0-4.5,0.7-5.7,2.2c-1.3,1.5-1.9,3.8-1.9,7
		c0,6.9,2.7,10.4,8,10.4c2.6,0,5.2-0.6,7.6-1.9l0.7,0.4l-0.6,6.6c-2.5,1-5.2,1.5-8.1,1.5c-5.2,0-9.1-1.4-11.8-4.2
		c-2.7-2.8-4-6.8-4-12c0-5.3,1.4-9.4,4.3-12.3c2.9-2.9,6.9-4.4,12.2-4.4C121.7,20.1,124.6,20.6,127.3,21.7z"/>
	<path class="st2" d="M160.7,52.4h-7.9l0.3-9.5l-0.1-3.1l-7.1-0.1l-6.4,0.1l-0.1,2.3l0.3,10.2h-7.9l0.3-9.5l-0.3-22.4h8.1l-0.3,12.6
		l6.7,0.1l6.6-0.1l-0.2-12.7h8.1l-0.4,21.6L160.7,52.4z"/>
	<path class="st2" d="M193.1,24.1c2.6,2.7,3.9,6.6,3.9,11.6c0,5.5-1.4,9.7-4.3,12.7c-2.8,3-6.8,4.5-12,4.5c-4.8,0-8.4-1.4-11-4.2
		c-2.6-2.8-3.9-6.7-3.9-11.8c0-5.4,1.4-9.5,4.2-12.5c2.8-2.9,6.8-4.4,12-4.4C186.8,20,190.5,21.4,193.1,24.1z M175.7,28.6
		c-1.1,1.4-1.7,3.8-1.7,7.3c0,2.8,0.2,5,0.7,6.5c0.5,1.6,1.3,2.7,2.3,3.4c1.1,0.7,2.5,1,4.3,1c2.6,0,4.5-0.7,5.6-2.1
		c1.1-1.4,1.7-3.8,1.7-7.3c0-2.8-0.3-5-0.8-6.5c-0.5-1.6-1.3-2.7-2.3-3.4c-1.1-0.7-2.5-1-4.4-1C178.7,26.5,176.8,27.2,175.7,28.6z"
		/>
	<path class="st2" d="M225.6,21.7l-1.4,6.7l-0.6,0.3c-2.1-1.4-4.5-2.1-7.3-2.1c-2.6,0-4.5,0.7-5.7,2.2c-1.3,1.5-1.9,3.8-1.9,7
		c0,6.9,2.7,10.4,8,10.4c2.6,0,5.2-0.6,7.6-1.9l0.7,0.4l-0.6,6.6c-2.5,1-5.2,1.5-8.1,1.5c-5.2,0-9.1-1.4-11.8-4.2
		c-2.7-2.8-4-6.8-4-12c0-5.3,1.4-9.4,4.3-12.3c2.9-2.9,6.9-4.4,12.2-4.4C219.9,20.1,222.8,20.6,225.6,21.7z"/>
	<path class="st2" d="M255,24.1c2.6,2.7,3.9,6.6,3.9,11.6c0,5.5-1.4,9.7-4.3,12.7c-2.8,3-6.8,4.5-12,4.5c-4.8,0-8.4-1.4-11-4.2
		c-2.6-2.8-3.9-6.7-3.9-11.8c0-5.4,1.4-9.5,4.2-12.5c2.8-2.9,6.8-4.4,12-4.4C248.7,20,252.4,21.4,255,24.1z M237.6,28.6
		c-1.1,1.4-1.7,3.8-1.7,7.3c0,2.8,0.2,5,0.7,6.5c0.5,1.6,1.3,2.7,2.3,3.4c1.1,0.7,2.5,1,4.3,1c2.6,0,4.5-0.7,5.6-2.1
		c1.1-1.4,1.7-3.8,1.7-7.3c0-2.8-0.3-5-0.8-6.5c-0.5-1.6-1.3-2.7-2.3-3.4c-1.1-0.7-2.5-1-4.4-1C240.6,26.5,238.7,27.2,237.6,28.6z"
		/>
	<path class="st2" d="M282.6,52.4h-18.7l0.4-9.5l-0.4-22.4h8.1l-0.4,21.6l0.1,3.7h11l0.4,0.6L282.6,52.4z"/>
	<path class="st2" d="M307.9,52.4l-0.9-4.6l-0.6-1.8l-6.4-0.1l-5.7,0.1l-0.4,1.3l-0.9,5h-7.8l11.2-31.8h9.4l10.2,31.8H307.9z
		 M301.1,27.8h-0.5L296.4,40l4.1,0.1l4.2-0.1L301.1,27.8z"/>
	<path class="st2" d="M339.2,27.2l-6.4-0.4H331l-0.2,15.4l0.3,10.2h-7.9l0.3-9.5l-0.1-16.1h-1.8l-6.6,0.4l-0.5-0.6l0.4-6.1h24.3
		l0.4,0.6L339.2,27.2z"/>
	<path class="st2" d="M366.2,46.5l-0.6,5.9h-21.8l0.3-9.5l-0.3-22.4H366l0.4,0.6l-0.5,5.9l-8.2-0.3h-5.9l-0.1,6.4l5.7,0.1l5.5-0.2
		l0.4,0.6l-0.5,6l-6-0.2h-5.2l-0.1,2.8l0.1,4h5.5l8.6-0.3L366.2,46.5z"/>
	<path class="st2" d="M396.8,43.3c0,6.2-5.3,9.3-15.8,9.3c-2.3,0-5.6-0.1-9.8-0.3l0.3-9.5l-0.3-22.4l12.8-0.1c3.5,0,6.3,0.7,8.3,2.1
		c2,1.4,3,3.4,3,6c0,3.4-1.7,5.9-5.1,7.4C394.6,37,396.8,39.4,396.8,43.3z M388.6,42.9c0-1-0.4-1.8-1.1-2.4
		c-0.7-0.6-1.8-1.1-3.3-1.4l-5.5,0.1l-0.1,2.9l0.1,4.7c1.3,0.1,2.5,0.2,3.5,0.2C386.6,47.1,388.6,45.7,388.6,42.9z M385.7,26.9
		c-0.9-0.5-2.5-0.8-4.8-0.8h-2l-0.1,7.5l4.6,0.1c1.2-0.3,2.1-0.8,2.7-1.4c0.6-0.6,0.9-1.6,0.9-2.8C387.1,28.3,386.6,27.4,385.7,26.9
		z"/>
	<path class="st2" d="M427.4,24.1c2.6,2.7,3.9,6.6,3.9,11.6c0,5.5-1.4,9.7-4.3,12.7c-2.8,3-6.8,4.5-12,4.5c-4.8,0-8.4-1.4-11-4.2
		c-2.6-2.8-3.9-6.7-3.9-11.8c0-5.4,1.4-9.5,4.2-12.5c2.8-2.9,6.8-4.4,12-4.4C421.1,20,424.8,21.4,427.4,24.1z M410,28.6
		c-1.1,1.4-1.7,3.8-1.7,7.3c0,2.8,0.2,5,0.7,6.5c0.5,1.6,1.3,2.7,2.3,3.4c1.1,0.7,2.5,1,4.3,1c2.6,0,4.5-0.7,5.6-2.1
		c1.1-1.4,1.7-3.8,1.7-7.3c0-2.8-0.3-5-0.8-6.5c-0.5-1.6-1.3-2.7-2.3-3.4c-1.1-0.7-2.5-1-4.4-1C413,26.5,411.1,27.2,410,28.6z"/>
	<path class="st2" d="M454.7,52.4l-0.9-4.6l-0.6-1.8l-6.4-0.1l-5.7,0.1l-0.4,1.3l-0.9,5H432l11.2-31.8h9.4l10.2,31.8H454.7z
		 M448,27.8h-0.5L443.3,40l4.1,0.1l4.2-0.1L448,27.8z"/>
	<path class="st2" d="M493.9,50.5l-0.1,0.9c-2.6,0.8-5.2,1.3-7.7,1.5l-1.1-0.8c-2.4-4.1-4.2-7.5-5.5-10h-4.9v0.1l0.3,10.2H467
		l0.3-9.5L467,20.5l13.7-0.1c3.6,0,6.3,0.8,8.3,2.5c2,1.7,2.9,4,2.9,7.1c0,2-0.5,3.8-1.6,5.5c-1.1,1.7-2.5,3.1-4.4,4.3
		C488.8,43.9,491.4,47.5,493.9,50.5z M479.5,36.3c2.8-0.9,4.2-2.7,4.2-5.4c0-1.5-0.4-2.6-1.3-3.4c-0.9-0.7-2.3-1.1-4.2-1.2l-3.2,0.1
		l-0.2,9.6L479.5,36.3z"/>
	<path class="st2" d="M523.5,24.2c2.6,2.6,3.9,6.3,3.9,11.1c0,5.6-1.5,10-4.4,13c-3,3-7.2,4.5-12.8,4.5c-3.2,0-7.3-0.1-12-0.4
		l0.3-9.5l-0.3-22.4l14-0.3C517.1,20.3,520.8,21.6,523.5,24.2z M519.2,37.1c0-3.7-0.6-6.4-1.8-8c-1.2-1.6-3.2-2.4-5.9-2.4
		c-2,0-3.8,0.1-5.4,0.3l-0.3,15.3l0.1,4.1c2.2,0.3,4.1,0.4,5.7,0.4C516.7,46.7,519.2,43.5,519.2,37.1z"/>
</g>
</svg>
