<?xml version="1.0" encoding="iso-8859-1"?>
<!-- Generator: Adobe Illustrator 17.0.0, SVG Export Plug-In . SVG Version: 6.00 Build 0)  -->
<!DOCTYPE svg PUBLIC "-//W3C//DTD SVG 1.1//EN" "http://www.w3.org/Graphics/SVG/1.1/DTD/svg11.dtd">
<svg version="1.1" id="&#x30EC;&#x30A4;&#x30E4;&#x30FC;_1"
	 xmlns="http://www.w3.org/2000/svg" xmlns:xlink="http://www.w3.org/1999/xlink" x="0px" y="0px" width="529.55px"
	 height="70.963px" viewBox="0 0 529.55 70.963" style="enable-background:new 0 0 529.55 70.963;" xml:space="preserve">
<g>
	<path style="fill:#FFFFFF;" d="M1.777,52.241c-0.529-0.55-0.958-1.254-1.286-2.11C0.164,49.273,0,48.279,0,47.147
		s0.259-2.65,0.778-4.555c0.518-1.904,1.179-4.073,1.983-6.507l2.666-7.902c3.787-11.002,5.977-19.508,6.57-25.518
		C12.188,0.889,13.055,0,14.6,0c0.973,0,1.777,0.233,2.412,0.698c1.227,0.931,1.819,1.968,1.777,3.11
		c-0.042,1.143-0.244,2.534-0.603,4.174c-0.36,1.64-0.825,3.428-1.396,5.363c-0.571,1.937-1.228,3.983-1.968,6.142l-4.38,12.886
		c-2.518,7.321-3.777,12.05-3.777,14.187c0,1.143,0.465,1.714,1.396,1.714c0.889,0,1.698-0.19,2.428-0.571
		c0.729-0.381,1.2-0.571,1.412-0.571c0.444,0,0.667,0.223,0.667,0.667c0,1.883-0.963,3.459-2.888,4.729
		c-1.291,0.868-2.471,1.302-3.539,1.302s-1.931-0.127-2.586-0.381C2.898,53.193,2.306,52.791,1.777,52.241z"/>
	<path style="fill:#FFFFFF;" d="M21.328,51.353c-0.889-0.847-1.587-1.92-2.095-3.222c-0.508-1.301-0.772-2.841-0.793-4.618
		c-0.021-1.777,0.195-3.575,0.65-5.396c0.455-1.819,1.1-3.575,1.937-5.268c0.835-1.692,1.841-3.279,3.015-4.761
		c1.175-1.481,2.47-2.771,3.888-3.872c3.089-2.37,6.294-3.555,9.617-3.555c4.358,0,7.31,1.915,8.855,5.745
		c1.1,2.772,1.164,6.125,0.19,10.061c-0.889,3.618-2.518,6.94-4.888,9.966c-2.349,3.026-5.121,5.174-8.315,6.443
		c-1.608,0.635-3.19,0.952-4.745,0.952c-1.556,0-2.941-0.201-4.158-0.604C23.269,52.823,22.217,52.199,21.328,51.353z M27.39,35.959
		c-0.635,1.566-1.138,3.174-1.508,4.824s-0.545,3.211-0.523,4.682c0.021,1.471,0.249,2.624,0.683,3.46
		c0.433,0.836,1.137,1.253,2.11,1.253c0.973,0,1.931-0.333,2.872-0.999c0.941-0.667,1.857-1.55,2.746-2.65s1.724-2.37,2.507-3.809
		c0.783-1.438,1.47-2.941,2.063-4.507c1.291-3.406,1.915-6.432,1.873-9.077c0-2.327-0.476-3.809-1.428-4.443
		c-0.381-0.254-0.916-0.381-1.603-0.381s-1.476,0.312-2.364,0.937s-1.777,1.465-2.666,2.523c-0.889,1.058-1.746,2.296-2.571,3.713
		C28.755,32.902,28.025,34.394,27.39,35.959z"/>
	<path style="fill:#FFFFFF;" d="M68.396,46.592c-3.216,4.824-6.782,7.236-10.696,7.236c-3.534,0-5.914-1.883-7.141-5.649
		c-0.423-1.291-0.635-2.878-0.635-4.761s0.27-3.771,0.81-5.665c0.539-1.894,1.274-3.687,2.206-5.38
		c0.931-1.692,2.026-3.253,3.285-4.682c1.259-1.428,2.608-2.66,4.047-3.697c3.004-2.222,5.988-3.333,8.95-3.333
		c2.962,0,5.078,1.386,6.348,4.158c0.254-0.275,0.486-0.556,0.698-0.841c0.211-0.286,0.444-0.556,0.698-0.81
		c0.55-0.55,1.031-0.825,1.444-0.825c0.412,0,0.846,0.074,1.301,0.222c0.455,0.148,0.894,0.349,1.317,0.603
		c1.037,0.614,1.428,1.185,1.174,1.714c-1.164,2.518-2.137,4.994-2.92,7.427l-4.697,14.98c-3.703,11.362-8.4,18.704-14.092,22.026
		c-1.502,0.889-2.804,1.401-3.904,1.539c-1.101,0.138-1.894,0.143-2.38,0.016c-0.487-0.127-0.92-0.307-1.301-0.539
		c-0.825-0.529-1.238-1.006-1.238-1.429c0-0.74,0.492-1.195,1.476-1.364c0.983-0.17,2.015-0.566,3.094-1.19s2.105-1.381,3.079-2.27
		C63.317,60.376,66.343,54.547,68.396,46.592z M58.89,35.578c-0.561,1.523-1,3.084-1.317,4.682s-0.476,2.904-0.476,3.92
		s0.032,1.788,0.095,2.316c0.063,0.529,0.19,0.995,0.381,1.396c0.423,0.889,1.047,1.333,1.873,1.333s1.64-0.29,2.444-0.872
		c0.804-0.582,1.65-1.381,2.539-2.396s1.777-2.211,2.666-3.587c0.889-1.375,1.735-2.856,2.539-4.443
		c1.777-3.512,3.025-6.865,3.745-10.061c-0.106-0.592-0.466-1.195-1.079-1.809c-1.206-1.164-2.296-1.746-3.269-1.746
		c-0.974,0-1.947,0.302-2.92,0.904c-0.974,0.604-1.899,1.418-2.777,2.444s-1.698,2.222-2.459,3.586
		C60.112,32.611,59.45,34.055,58.89,35.578z"/>
	<path style="fill:#FFFFFF;" d="M84.852,52.432c-0.477-0.466-0.852-1-1.127-1.603c-0.275-0.604-0.413-1.302-0.413-2.095
		c0-0.794,0.153-1.503,0.46-2.127c0.306-0.624,0.692-1.127,1.158-1.508c0.825-0.677,1.698-1.016,2.618-1.016
		c0.921,0,1.703,0.063,2.349,0.19s1.254,0.328,1.825,0.604c1.312,0.677,1.968,1.65,1.968,2.92c0,1.587-0.519,2.973-1.555,4.157
		c-0.974,1.101-1.984,1.703-3.031,1.81c-1.048,0.105-1.899,0.026-2.555-0.238C85.894,53.262,85.328,52.897,84.852,52.432z"/>
	<path style="fill:#FFFFFF;" d="M101.467,42.561c0.042-1.841,0.333-3.676,0.873-5.506c0.539-1.83,1.258-3.56,2.158-5.189
		c0.899-1.629,1.968-3.131,3.205-4.507c1.238-1.375,2.587-2.56,4.047-3.555c3.047-2.095,6.252-3.142,9.617-3.142
		c3.47,0,5.829,1.386,7.078,4.158c0.444,0.995,0.65,2.122,0.619,3.38c-0.032,1.259-0.238,2.412-0.619,3.46
		c-0.381,1.047-0.857,1.983-1.428,2.809c-1.291,1.862-2.592,2.793-3.904,2.793c-1.46,0-2.539-0.402-3.237-1.206
		c-0.614-0.698-0.804-1.513-0.571-2.444c0.063-0.275,0.254-0.524,0.571-0.746c0.317-0.223,0.719-0.577,1.206-1.063
		c1.375-1.438,2.095-3.121,2.158-5.046c0.042-1.312-0.762-1.968-2.412-1.968c-1.777,0-3.64,0.995-5.586,2.983
		c-2.835,2.899-4.835,6.612-5.999,11.14c-1.016,3.936-0.825,6.813,0.571,8.633c0.825,1.058,1.946,1.587,3.364,1.587
		c2.391,0,4.697-0.847,6.919-2.539c0.677-0.529,1.227-1.068,1.65-1.619c0.423-0.55,0.814-0.825,1.174-0.825
		c0.359,0,0.661,0.175,0.904,0.524c0.243,0.349,0.365,0.799,0.365,1.349c0,1.248-0.561,2.476-1.682,3.682
		c-2.878,2.751-6.337,4.126-10.378,4.126c-3.449,0-6.115-0.984-7.998-2.952C102.271,48.93,101.382,46.158,101.467,42.561z"/>
	<path style="fill:#FFFFFF;" d="M153.755,26.66c-1.164,0-3.248,1.777-6.252,5.332l-2.634,3.237l-5.078,6.633
		c-1.228,2.328-2.19,4.264-2.888,5.809l-1.714,3.682c-0.444,0.91-0.831,1.55-1.159,1.92s-0.772,0.556-1.333,0.556
		s-1.1-0.101-1.618-0.302c-0.519-0.201-0.968-0.46-1.349-0.777c-0.804-0.677-1.206-1.418-1.206-2.222
		c0-0.317,0.222-0.941,0.667-1.873l1.27-2.57c3.957-8.146,7.543-18.472,10.759-30.977c1.185-4.612,2.042-8.76,2.571-12.441
		C144.022,0.889,144.89,0,146.392,0c0.973,0,1.777,0.233,2.412,0.698c1.227,0.91,1.819,1.883,1.777,2.92
		c-0.042,1.037-0.19,2.201-0.444,3.491c-0.254,1.291-0.582,2.693-0.984,4.205c-0.402,1.513-0.857,3.105-1.365,4.777
		c-1.396,4.253-2.434,7.321-3.11,9.204c-2.074,5.692-3.354,9.024-3.84,9.998c0.317-0.381,0.73-0.899,1.238-1.555
		c3.851-5.057,6.231-8.078,7.141-9.061c0.91-0.984,1.682-1.74,2.317-2.27c1.333-1.164,3.025-1.746,5.078-1.746
		c1.671,0,3.015,0.561,4.031,1.682c0.952,1.079,1.428,2.259,1.428,3.539s-0.143,2.433-0.429,3.459
		c-0.285,1.027-0.65,2.069-1.095,3.126c-0.444,1.058-0.931,2.148-1.46,3.269l-1.587,3.332c-1.481,3.364-2.222,5.861-2.222,7.49
		c0,1.143,0.465,1.714,1.396,1.714c0.889,0,1.698-0.19,2.428-0.571c0.73-0.381,1.201-0.571,1.413-0.571
		c0.444,0,0.667,0.223,0.667,0.667c0,1.883-0.952,3.459-2.856,4.729c-1.312,0.868-2.507,1.302-3.586,1.302s-1.973-0.111-2.682-0.333
		c-0.709-0.223-1.338-0.588-1.888-1.096c-1.249-1.143-1.873-2.824-1.873-5.046c0-2.391,0.783-5.396,2.349-9.014l3.428-7.3
		c0.656-1.354,0.984-2.422,0.984-3.206C155.057,27.052,154.623,26.66,153.755,26.66z"/>
	<path style="fill:#FFFFFF;" d="M168.878,51.353c-0.889-0.847-1.587-1.92-2.095-3.222c-0.508-1.301-0.772-2.841-0.793-4.618
		c-0.021-1.777,0.195-3.575,0.65-5.396c0.455-1.819,1.1-3.575,1.937-5.268c0.835-1.692,1.841-3.279,3.015-4.761
		c1.175-1.481,2.47-2.771,3.888-3.872c3.089-2.37,6.294-3.555,9.617-3.555c4.358,0,7.31,1.915,8.855,5.745
		c1.1,2.772,1.164,6.125,0.19,10.061c-0.889,3.618-2.518,6.94-4.888,9.966c-2.349,3.026-5.121,5.174-8.315,6.443
		c-1.608,0.635-3.19,0.952-4.745,0.952c-1.556,0-2.941-0.201-4.158-0.604C170.819,52.823,169.767,52.199,168.878,51.353z
		 M174.94,35.959c-0.635,1.566-1.138,3.174-1.508,4.824s-0.545,3.211-0.523,4.682c0.021,1.471,0.249,2.624,0.683,3.46
		c0.433,0.836,1.137,1.253,2.11,1.253c0.973,0,1.931-0.333,2.872-0.999c0.941-0.667,1.857-1.55,2.746-2.65s1.724-2.37,2.507-3.809
		c0.783-1.438,1.47-2.941,2.063-4.507c1.291-3.406,1.915-6.432,1.873-9.077c0-2.327-0.476-3.809-1.428-4.443
		c-0.381-0.254-0.916-0.381-1.603-0.381s-1.476,0.312-2.364,0.937s-1.777,1.465-2.666,2.523c-0.889,1.058-1.746,2.296-2.571,3.713
		C176.305,32.902,175.575,34.394,174.94,35.959z"/>
	<path style="fill:#FFFFFF;" d="M198.22,42.561c0.042-1.841,0.333-3.676,0.873-5.506c0.539-1.83,1.258-3.56,2.158-5.189
		c0.899-1.629,1.968-3.131,3.205-4.507c1.238-1.375,2.587-2.56,4.047-3.555c3.047-2.095,6.252-3.142,9.617-3.142
		c3.47,0,5.829,1.386,7.078,4.158c0.444,0.995,0.65,2.122,0.619,3.38c-0.032,1.259-0.238,2.412-0.619,3.46
		c-0.381,1.047-0.857,1.983-1.428,2.809c-1.291,1.862-2.592,2.793-3.904,2.793c-1.46,0-2.539-0.402-3.237-1.206
		c-0.614-0.698-0.804-1.513-0.571-2.444c0.063-0.275,0.254-0.524,0.571-0.746c0.317-0.223,0.719-0.577,1.206-1.063
		c1.375-1.438,2.095-3.121,2.158-5.046c0.042-1.312-0.762-1.968-2.412-1.968c-1.777,0-3.64,0.995-5.586,2.983
		c-2.835,2.899-4.835,6.612-5.999,11.14c-1.016,3.936-0.825,6.813,0.571,8.633c0.825,1.058,1.946,1.587,3.364,1.587
		c2.391,0,4.697-0.847,6.919-2.539c0.677-0.529,1.227-1.068,1.65-1.619c0.423-0.55,0.814-0.825,1.174-0.825
		c0.359,0,0.661,0.175,0.904,0.524c0.243,0.349,0.365,0.799,0.365,1.349c0,1.248-0.561,2.476-1.682,3.682
		c-2.878,2.751-6.337,4.126-10.378,4.126c-3.449,0-6.115-0.984-7.998-2.952C199.024,48.93,198.135,46.158,198.22,42.561z"/>
	<path style="fill:#FFFFFF;" d="M231.545,51.353c-0.889-0.847-1.587-1.92-2.095-3.222c-0.508-1.301-0.772-2.841-0.793-4.618
		c-0.021-1.777,0.195-3.575,0.65-5.396c0.455-1.819,1.1-3.575,1.937-5.268c0.835-1.692,1.841-3.279,3.015-4.761
		c1.175-1.481,2.47-2.771,3.888-3.872c3.089-2.37,6.294-3.555,9.616-3.555c4.359,0,7.311,1.915,8.855,5.745
		c1.1,2.772,1.164,6.125,0.189,10.061c-0.889,3.618-2.518,6.94-4.887,9.966c-2.35,3.026-5.121,5.174-8.316,6.443
		c-1.607,0.635-3.189,0.952-4.744,0.952c-1.555,0-2.941-0.201-4.158-0.604C233.486,52.823,232.434,52.199,231.545,51.353z
		 M237.607,35.959c-0.635,1.566-1.138,3.174-1.508,4.824s-0.545,3.211-0.523,4.682c0.021,1.471,0.249,2.624,0.683,3.46
		c0.433,0.836,1.137,1.253,2.11,1.253c0.973,0,1.932-0.333,2.873-0.999c0.941-0.667,1.855-1.55,2.744-2.65s1.725-2.37,2.508-3.809
		s1.471-2.941,2.062-4.507c1.291-3.406,1.916-6.432,1.873-9.077c0-2.327-0.477-3.809-1.428-4.443
		c-0.381-0.254-0.916-0.381-1.604-0.381s-1.475,0.312-2.363,0.937s-1.777,1.465-2.666,2.523c-0.889,1.058-1.746,2.296-2.572,3.713
		C238.972,32.902,238.242,34.394,237.607,35.959z"/>
	<path style="fill:#FFFFFF;" d="M262.569,52.241c-0.528-0.55-0.957-1.254-1.285-2.11c-0.328-0.857-0.492-1.852-0.492-2.983
		s0.26-2.65,0.778-4.555c0.518-1.904,1.179-4.073,1.983-6.507l2.666-7.902c3.787-11.002,5.978-19.508,6.57-25.518
		C272.979,0.889,273.847,0,275.392,0c0.974,0,1.777,0.233,2.412,0.698c1.228,0.931,1.82,1.968,1.777,3.11
		c-0.042,1.143-0.243,2.534-0.603,4.174c-0.36,1.64-0.825,3.428-1.396,5.363c-0.571,1.937-1.228,3.983-1.968,6.142l-4.38,12.886
		c-2.519,7.321-3.776,12.05-3.776,14.187c0,1.143,0.465,1.714,1.396,1.714c0.889,0,1.697-0.19,2.428-0.571
		c0.729-0.381,1.2-0.571,1.412-0.571c0.444,0,0.666,0.223,0.666,0.667c0,1.883-0.963,3.459-2.888,4.729
		c-1.291,0.868-2.471,1.302-3.539,1.302s-1.931-0.127-2.587-0.381C263.691,53.193,263.098,52.791,262.569,52.241z"/>
	<path style="fill:#FFFFFF;" d="M303.671,45.068c0,1.946,0.688,2.92,2.062,2.92c0.953,0,1.74-0.148,2.365-0.444
		c0.624-0.296,1.042-0.444,1.254-0.444c0.443,0,0.666,0.232,0.666,0.698c0,1.819-0.952,3.386-2.856,4.697
		c-2.011,1.375-4.062,1.714-6.157,1.016c-1.376-0.486-2.392-1.534-3.047-3.143c-0.317-0.825-0.477-1.576-0.477-2.253
		c0-1.101,0.106-2.264,0.318-3.491c-1.969,4.021-4.412,6.792-7.332,8.315c-1.164,0.592-2.401,0.889-3.713,0.889
		c-1.312,0-2.45-0.27-3.412-0.81c-0.963-0.539-1.783-1.285-2.46-2.237c-1.376-1.989-1.999-4.485-1.872-7.49
		c0.127-3.767,1.237-7.459,3.332-11.077c1.925-3.385,4.358-6.146,7.3-8.284c2.94-2.179,5.691-3.269,8.252-3.269
		c2.56,0,4.623,1.174,6.188,3.523c1.461-2.349,2.751-3.523,3.873-3.523c1.205,0,2.115,0.222,2.729,0.667
		c1.164,0.847,1.576,1.587,1.238,2.222c-5.312,10.876-8.041,17.646-8.188,20.312C303.691,44.243,303.671,44.646,303.671,45.068z
		 M286.056,45.195c0,2.539,0.814,3.809,2.444,3.809c1.248,0,2.782-1.058,4.603-3.174c2.666-3.11,5.024-7.3,7.077-12.568
		c0.655-1.65,1.206-3.301,1.65-4.951c-0.085-1.438-0.688-2.497-1.81-3.174c-0.381-0.232-0.946-0.349-1.697-0.349
		c-0.752,0-1.63,0.275-2.635,0.825c-1.005,0.55-1.979,1.301-2.92,2.253s-1.819,2.079-2.634,3.38
		c-0.815,1.302-1.529,2.714-2.143,4.237C286.701,38.742,286.056,41.979,286.056,45.195z"/>
	<path style="fill:#FFFFFF;" d="M331.839,45.195c0.613,0,0.921,0.412,0.921,1.237c0,0.698-0.212,1.376-0.635,2.031
		c-0.572,1.228-1.715,2.392-3.428,3.491c-1.947,1.249-3.904,1.873-5.872,1.873c-3.407,0-5.565-1.523-6.475-4.57
		c-1.079-3.618,0.54-11.288,4.856-23.01c-2.434-0.211-3.757-0.635-3.968-1.27c-0.063-0.19-0.095-0.397-0.095-0.619
		c0-0.223,0.1-0.481,0.301-0.778c0.201-0.296,0.461-0.582,0.777-0.857c0.741-0.613,1.492-0.92,2.254-0.92h2.508
		c2.285-5.353,3.914-8.4,4.887-9.141c0.466-0.338,0.984-0.508,1.556-0.508s1.048,0.074,1.429,0.222
		c0.381,0.148,0.719,0.36,1.016,0.635c0.677,0.635,1.016,1.344,1.016,2.126c0,0.423-0.127,0.91-0.381,1.46l-2.35,5.11h0.762
		c1.312,0,2.37-0.01,3.174-0.032l1.81-0.032c0.401-0.021,0.904-0.032,1.508-0.032c0.603,0,0.904,0.222,0.904,0.667
		c0,2.793-3.301,4.189-9.902,4.189h-0.254l-2.158,5.586c-2.434,6.602-3.649,11.225-3.649,13.869c0,0.741,0.169,1.317,0.508,1.73
		c0.338,0.412,0.973,0.618,1.904,0.618c0.931,0,1.777-0.158,2.539-0.476s1.428-0.672,1.999-1.063s1.063-0.746,1.476-1.063
		C331.188,45.354,331.542,45.195,331.839,45.195z"/>
	<path style="fill:#FFFFFF;" d="M337.012,42.402c0.084-1.841,0.392-3.603,0.921-5.284c0.528-1.683,1.237-3.312,2.126-4.888
		s1.931-3.068,3.126-4.476c1.195-1.407,2.492-2.639,3.889-3.697c3.025-2.264,6.082-3.396,9.172-3.396
		c3.618,0,6.03,1.492,7.236,4.475c0.423,1.016,0.624,2.217,0.604,3.603c-0.021,1.386-0.286,2.666-0.794,3.84
		c-0.508,1.175-1.212,2.243-2.11,3.206c-0.899,0.963-1.968,1.824-3.206,2.586c-1.237,0.762-2.587,1.407-4.046,1.937
		c-3.005,1.058-6.221,1.608-9.648,1.65c-0.085,0.296-0.139,0.74-0.159,1.333c-0.021,0.593,0.042,1.254,0.19,1.983
		c0.147,0.73,0.401,1.381,0.762,1.952c0.762,1.27,1.861,1.904,3.301,1.904c2.454,0,4.845-0.72,7.173-2.158
		c0.825-0.486,1.497-0.989,2.016-1.508c0.518-0.519,0.968-0.777,1.349-0.777s0.714,0.228,1,0.683
		c0.285,0.455,0.428,0.968,0.428,1.539c0,1.121-0.316,2.095-0.951,2.92c-2.666,2.666-6.634,3.999-11.902,3.999
		c-3.11,0-5.607-0.931-7.49-2.793C337.879,48.919,336.885,46.042,337.012,42.402z M355.547,24.883c-2.222,0-4.359,1.523-6.411,4.57
		c-1.735,2.624-3.132,5.734-4.189,9.331c3.533-0.359,6.602-1.756,9.204-4.189c2.391-2.285,3.587-4.475,3.587-6.57
		S357.007,24.883,355.547,24.883z"/>
	<path style="fill:#FFFFFF;" d="M366.639,44.497c0-1.228,0.09-2.401,0.271-3.523c0.18-1.121,0.412-2.253,0.698-3.396
		c0.285-1.143,0.607-2.285,0.968-3.428l3.555-10.854c2.813-8.802,4.581-15.679,5.3-20.63C377.663,0.889,378.53,0,380.033,0
		c0.889,0,1.639,0.233,2.253,0.698c1.121,0.91,1.666,1.878,1.635,2.904c-0.032,1.026-0.181,2.169-0.444,3.428
		c-0.265,1.259-0.604,2.629-1.016,4.11c-0.413,1.481-0.884,3.037-1.412,4.666c-1.418,4.189-2.477,7.215-3.174,9.077l-1.81,4.729
		c1.841-2.856,3.343-4.813,4.507-5.872c2.327-2.052,4.75-3.079,7.268-3.079c3.703,0,6.168,1.936,7.396,5.808
		c0.401,1.333,0.603,2.994,0.603,4.983c0,1.989-0.291,3.962-0.872,5.919c-0.582,1.957-1.37,3.776-2.364,5.459
		c-0.995,1.682-2.153,3.2-3.476,4.554c-1.323,1.354-2.714,2.508-4.174,3.46c-3.09,1.989-6.083,2.983-8.981,2.983
		c-2.92,0-5.217-0.889-6.888-2.666C367.453,49.385,366.639,47.163,366.639,44.497z M375.525,49.702c1.989,0,4.01-0.889,6.062-2.666
		c3.131-2.708,5.236-6.58,6.316-11.616c0.359-1.65,0.539-3.369,0.539-5.157s-0.201-3.042-0.604-3.761
		c-0.401-0.719-1.021-1.079-1.856-1.079s-1.709,0.339-2.618,1.016c-0.91,0.677-1.862,1.571-2.856,2.682
		c-0.995,1.11-1.979,2.391-2.952,3.84c-0.973,1.45-1.852,2.946-2.634,4.491c-1.714,3.406-2.571,6.3-2.571,8.681
		C372.352,48.512,373.41,49.702,375.525,49.702z"/>
	<path style="fill:#FFFFFF;" d="M401.486,51.353c-0.889-0.847-1.586-1.92-2.094-3.222c-0.508-1.301-0.773-2.841-0.794-4.618
		c-0.021-1.777,0.195-3.575,0.65-5.396c0.455-1.819,1.101-3.575,1.937-5.268c0.835-1.692,1.841-3.279,3.015-4.761
		c1.175-1.481,2.471-2.771,3.888-3.872c3.09-2.37,6.295-3.555,9.617-3.555c4.358,0,7.311,1.915,8.855,5.745
		c1.1,2.772,1.163,6.125,0.189,10.061c-0.889,3.618-2.518,6.94-4.887,9.966c-2.35,3.026-5.121,5.174-8.316,6.443
		c-1.607,0.635-3.189,0.952-4.744,0.952c-1.556,0-2.941-0.201-4.158-0.604C403.428,52.823,402.375,52.199,401.486,51.353z
		 M407.549,35.959c-0.635,1.566-1.138,3.174-1.508,4.824s-0.545,3.211-0.523,4.682c0.021,1.471,0.248,2.624,0.683,3.46
		c0.434,0.836,1.137,1.253,2.11,1.253c0.973,0,1.931-0.333,2.872-0.999c0.941-0.667,1.856-1.55,2.745-2.65s1.725-2.37,2.508-3.809
		c0.782-1.438,1.471-2.941,2.062-4.507c1.291-3.406,1.915-6.432,1.873-9.077c0-2.327-0.477-3.809-1.428-4.443
		c-0.381-0.254-0.916-0.381-1.604-0.381s-1.476,0.312-2.364,0.937s-1.777,1.465-2.666,2.523c-0.889,1.058-1.745,2.296-2.571,3.713
		C408.914,32.902,408.184,34.394,407.549,35.959z"/>
	<path style="fill:#FFFFFF;" d="M454.458,45.068c0,1.946,0.688,2.92,2.062,2.92c0.953,0,1.74-0.148,2.365-0.444
		c0.624-0.296,1.042-0.444,1.254-0.444c0.443,0,0.666,0.232,0.666,0.698c0,1.819-0.952,3.386-2.856,4.697
		c-2.011,1.375-4.062,1.714-6.157,1.016c-1.376-0.486-2.392-1.534-3.047-3.143c-0.317-0.825-0.477-1.576-0.477-2.253
		c0-1.101,0.106-2.264,0.318-3.491c-1.969,4.021-4.412,6.792-7.332,8.315c-1.164,0.592-2.401,0.889-3.713,0.889
		c-1.312,0-2.45-0.27-3.412-0.81c-0.963-0.539-1.783-1.285-2.46-2.237c-1.376-1.989-1.999-4.485-1.872-7.49
		c0.127-3.767,1.237-7.459,3.332-11.077c1.925-3.385,4.358-6.146,7.3-8.284c2.94-2.179,5.691-3.269,8.252-3.269
		c2.56,0,4.623,1.174,6.188,3.523c1.461-2.349,2.751-3.523,3.873-3.523c1.205,0,2.115,0.222,2.729,0.667
		c1.164,0.847,1.576,1.587,1.238,2.222c-5.312,10.876-8.041,17.646-8.188,20.312C454.479,44.243,454.458,44.646,454.458,45.068z
		 M436.843,45.195c0,2.539,0.814,3.809,2.444,3.809c1.248,0,2.782-1.058,4.603-3.174c2.666-3.11,5.024-7.3,7.077-12.568
		c0.655-1.65,1.206-3.301,1.65-4.951c-0.085-1.438-0.688-2.497-1.81-3.174c-0.381-0.232-0.946-0.349-1.697-0.349
		c-0.752,0-1.63,0.275-2.635,0.825c-1.005,0.55-1.979,1.301-2.92,2.253s-1.819,2.079-2.634,3.38
		c-0.815,1.302-1.529,2.714-2.143,4.237C437.488,38.742,436.843,41.979,436.843,45.195z"/>
	<path style="fill:#FFFFFF;" d="M465.281,52.749c-0.424-0.317-0.762-0.672-1.016-1.063s-0.392-0.729-0.412-1.016
		c-0.021-0.285,0.036-0.635,0.174-1.047c0.138-0.413,0.322-0.915,0.556-1.508c4.316-10.622,6.475-17.752,6.475-21.392
		c-0.063-1.016-0.413-1.735-1.048-2.158l-0.635-0.444c-0.189-0.148-0.291-0.407-0.301-0.777c-0.011-0.37,0.121-0.725,0.396-1.063
		c0.274-0.338,0.635-0.635,1.079-0.889c0.909-0.486,1.846-0.73,2.809-0.73s1.714,0.106,2.254,0.317
		c0.539,0.212,0.999,0.498,1.38,0.857c0.805,0.762,1.212,1.566,1.223,2.412c0.01,0.847-0.085,1.704-0.286,2.571
		c-0.201,0.868-0.439,1.719-0.714,2.555c-0.275,0.836-0.551,1.629-0.825,2.38c-0.275,0.751-0.455,1.307-0.54,1.667
		c-0.169,0.741-0.232,1.206-0.189,1.396c0.508-0.444,0.813-0.878,0.92-1.301l1.238-2.349c2.75-4.951,5.438-8.23,8.061-9.839
		c0.762-0.444,1.677-0.667,2.746-0.667c1.068,0,1.931,0.376,2.586,1.126c0.656,0.751,1,1.582,1.032,2.492
		c0.031,0.91-0.032,1.667-0.19,2.269c-0.159,0.604-0.396,1.169-0.715,1.698c-0.697,1.185-1.544,1.777-2.539,1.777
		c-0.274,0-0.528-0.095-0.762-0.286l-0.697-0.603c-0.699-0.613-1.371-0.92-2.016-0.92c-0.646,0-1.429,0.423-2.349,1.27
		c-0.921,0.847-1.878,1.936-2.872,3.269c-3.344,4.422-6.073,9.373-8.189,14.854l-1.396,3.682c-0.359,0.91-0.677,1.561-0.951,1.952
		c-0.275,0.391-0.683,0.587-1.223,0.587c-0.539,0-1.079-0.101-1.618-0.302C466.186,53.325,465.704,53.066,465.281,52.749z"/>
	<path style="fill:#FFFFFF;" d="M521.362,47.1c0.443,0,0.666,0.232,0.666,0.698c0,1.819-0.941,3.386-2.824,4.697
		c-1.249,0.889-2.429,1.333-3.539,1.333c-1.111,0-1.995-0.127-2.65-0.381c-0.656-0.254-1.249-0.656-1.777-1.206
		c-1.186-1.27-1.777-3.016-1.777-5.237c0-0.444,0.084-1.152,0.254-2.126c-1.714,2.645-3.185,4.507-4.412,5.586
		c-2.475,2.243-4.898,3.364-7.268,3.364c-3.745,0-6.2-1.692-7.363-5.078c-0.424-1.248-0.635-2.814-0.635-4.697
		s0.285-3.787,0.857-5.713c0.57-1.926,1.349-3.755,2.332-5.491c0.984-1.735,2.127-3.348,3.428-4.84
		c1.302-1.491,2.671-2.787,4.11-3.888c3.089-2.306,5.882-3.459,8.379-3.459c2.496,0,4.496,1.016,5.999,3.047
		c3.682-12.61,6.453-20.048,8.314-22.312C524.239,0.466,525.064,0,525.933,0c1.438,0,2.527,0.413,3.269,1.238
		c0.232,0.275,0.349,0.55,0.349,0.825c0,0.275-0.169,0.783-0.508,1.523c-0.338,0.741-0.836,1.936-1.491,3.586
		c-1.884,4.973-3.206,8.612-3.968,10.918c-1.946,5.903-3.258,9.966-3.936,12.188l-1.745,5.871c-1.503,5.227-2.253,8.549-2.253,9.966
		c0,1.418,0.518,2.127,1.555,2.127c0.952,0,1.714-0.127,2.285-0.381l1.206-0.571C520.928,47.163,521.15,47.1,521.362,47.1z
		 M499.558,49.067c2.179,0,4.676-2.127,7.49-6.38c2.94-4.4,4.993-9.193,6.157-14.377c-0.085-1.438-0.688-2.497-1.81-3.174
		c-0.381-0.232-0.957-0.349-1.729-0.349s-1.672,0.281-2.697,0.841c-1.026,0.561-2.021,1.317-2.983,2.269
		c-0.963,0.952-1.862,2.068-2.698,3.348c-0.836,1.281-1.561,2.64-2.174,4.079c-1.333,3.131-1.999,6.205-1.999,9.22
		C497.114,47.56,497.928,49.067,499.558,49.067z"/>
</g>
</svg>
