<?xml version="1.0" encoding="utf-8"?>
<!-- Generator: Adobe Illustrator 19.2.1, SVG Export Plug-In . SVG Version: 6.00 Build 0)  -->
<svg version="1.1" id="レイヤー_1" xmlns="http://www.w3.org/2000/svg" xmlns:xlink="http://www.w3.org/1999/xlink" x="0px"
	 y="0px" viewBox="0 0 529.5 71" style="enable-background:new 0 0 529.5 71;" xml:space="preserve">
<style type="text/css">
	.st0{display:none;}
	.st1{display:inline;fill:#231815;}
	.st2{fill:#FFFFFF;}
</style>
<g class="st0">
	<path class="st1" d="M1.8,52.2c-0.5-0.5-1-1.3-1.3-2.1c-0.3-0.9-0.5-1.9-0.5-3s0.3-2.7,0.8-4.6c0.5-1.9,1.2-4.1,2-6.5l2.7-7.9
		c3.8-11,6-19.5,6.6-25.5C12.2,0.9,13.1,0,14.6,0c1,0,1.8,0.2,2.4,0.7c1.2,0.9,1.8,2,1.8,3.1c0,1.1-0.2,2.5-0.6,4.2
		c-0.4,1.6-0.8,3.4-1.4,5.4c-0.6,1.9-1.2,4-2,6.1l-4.4,12.9c-2.5,7.3-3.8,12-3.8,14.2c0,1.1,0.5,1.7,1.4,1.7c0.9,0,1.7-0.2,2.4-0.6
		c0.7-0.4,1.2-0.6,1.4-0.6c0.4,0,0.7,0.2,0.7,0.7c0,1.9-1,3.5-2.9,4.7c-1.3,0.9-2.5,1.3-3.5,1.3s-1.9-0.1-2.6-0.4
		C2.9,53.2,2.3,52.8,1.8,52.2z"/>
	<path class="st1" d="M21.3,51.4c-0.9-0.8-1.6-1.9-2.1-3.2c-0.5-1.3-0.8-2.8-0.8-4.6s0.2-3.6,0.6-5.4c0.5-1.8,1.1-3.6,1.9-5.3
		c0.8-1.7,1.8-3.3,3-4.8c1.2-1.5,2.5-2.8,3.9-3.9c3.1-2.4,6.3-3.6,9.6-3.6c4.4,0,7.3,1.9,8.9,5.7c1.1,2.8,1.2,6.1,0.2,10.1
		c-0.9,3.6-2.5,6.9-4.9,10c-2.3,3-5.1,5.2-8.3,6.4c-1.6,0.6-3.2,1-4.7,1c-1.6,0-2.9-0.2-4.2-0.6C23.3,52.8,22.2,52.2,21.3,51.4z
		 M27.4,36c-0.6,1.6-1.1,3.2-1.5,4.8s-0.5,3.2-0.5,4.7c0,1.5,0.2,2.6,0.7,3.5c0.4,0.8,1.1,1.3,2.1,1.3c1,0,1.9-0.3,2.9-1
		c0.9-0.7,1.9-1.5,2.7-2.7s1.7-2.4,2.5-3.8c0.8-1.4,1.5-2.9,2.1-4.5c1.3-3.4,1.9-6.4,1.9-9.1c0-2.3-0.5-3.8-1.4-4.4
		c-0.4-0.3-0.9-0.4-1.6-0.4s-1.5,0.3-2.4,0.9s-1.8,1.5-2.7,2.5s-1.7,2.3-2.6,3.7C28.8,32.9,28,34.4,27.4,36z"/>
	<path class="st1" d="M68.4,46.6c-3.2,4.8-6.8,7.2-10.7,7.2c-3.5,0-5.9-1.9-7.1-5.6c-0.4-1.3-0.6-2.9-0.6-4.8s0.3-3.8,0.8-5.7
		c0.5-1.9,1.3-3.7,2.2-5.4c0.9-1.7,2-3.3,3.3-4.7c1.3-1.4,2.6-2.7,4-3.7c3-2.2,6-3.3,8.9-3.3s5.1,1.4,6.3,4.2
		c0.3-0.3,0.5-0.6,0.7-0.8c0.2-0.3,0.4-0.6,0.7-0.8c0.6-0.5,1-0.8,1.4-0.8c0.4,0,0.8,0.1,1.3,0.2s0.9,0.3,1.3,0.6
		c1,0.6,1.4,1.2,1.2,1.7c-1.2,2.5-2.1,5-2.9,7.4l-4.7,15c-3.7,11.4-8.4,18.7-14.1,22c-1.5,0.9-2.8,1.4-3.9,1.5
		c-1.1,0.1-1.9,0.1-2.4,0c-0.5-0.1-0.9-0.3-1.3-0.5c-0.8-0.5-1.2-1-1.2-1.4c0-0.7,0.5-1.2,1.5-1.4c1-0.2,2-0.6,3.1-1.2
		s2.1-1.4,3.1-2.3C63.3,60.4,66.3,54.5,68.4,46.6z M58.9,35.6c-0.6,1.5-1,3.1-1.3,4.7s-0.5,2.9-0.5,3.9s0,1.8,0.1,2.3
		c0.1,0.5,0.2,1,0.4,1.4c0.4,0.9,1,1.3,1.9,1.3s1.6-0.3,2.4-0.9s1.7-1.4,2.5-2.4s1.8-2.2,2.7-3.6c0.9-1.4,1.7-2.9,2.5-4.4
		c1.8-3.5,3-6.9,3.7-10.1c-0.1-0.6-0.5-1.2-1.1-1.8c-1.2-1.2-2.3-1.7-3.3-1.7c-1,0-1.9,0.3-2.9,0.9c-1,0.6-1.9,1.4-2.8,2.4
		s-1.7,2.2-2.5,3.6C60.1,32.6,59.5,34.1,58.9,35.6z"/>
	<path class="st1" d="M84.9,52.4c-0.5-0.5-0.9-1-1.1-1.6c-0.3-0.6-0.4-1.3-0.4-2.1c0-0.8,0.2-1.5,0.5-2.1c0.3-0.6,0.7-1.1,1.2-1.5
		c0.8-0.7,1.7-1,2.6-1c0.9,0,1.7,0.1,2.3,0.2s1.3,0.3,1.8,0.6c1.3,0.7,2,1.7,2,2.9c0,1.6-0.5,3-1.6,4.2c-1,1.1-2,1.7-3,1.8
		c-1,0.1-1.9,0-2.6-0.2C85.9,53.3,85.3,52.9,84.9,52.4z"/>
	<path class="st1" d="M101.5,42.6c0-1.8,0.3-3.7,0.9-5.5c0.5-1.8,1.3-3.6,2.2-5.2c0.9-1.6,2-3.1,3.2-4.5c1.2-1.4,2.6-2.6,4-3.6
		c3-2.1,6.3-3.1,9.6-3.1c3.5,0,5.8,1.4,7.1,4.2c0.4,1,0.6,2.1,0.6,3.4c0,1.3-0.2,2.4-0.6,3.5c-0.4,1-0.9,2-1.4,2.8
		c-1.3,1.9-2.6,2.8-3.9,2.8c-1.5,0-2.5-0.4-3.2-1.2c-0.6-0.7-0.8-1.5-0.6-2.4c0.1-0.3,0.3-0.5,0.6-0.7c0.3-0.2,0.7-0.6,1.2-1.1
		c1.4-1.4,2.1-3.1,2.2-5c0-1.3-0.8-2-2.4-2c-1.8,0-3.6,1-5.6,3c-2.8,2.9-4.8,6.6-6,11.1c-1,3.9-0.8,6.8,0.6,8.6
		c0.8,1.1,1.9,1.6,3.4,1.6c2.4,0,4.7-0.8,6.9-2.5c0.7-0.5,1.2-1.1,1.7-1.6c0.4-0.5,0.8-0.8,1.2-0.8c0.4,0,0.7,0.2,0.9,0.5
		s0.4,0.8,0.4,1.3c0,1.2-0.6,2.5-1.7,3.7c-2.9,2.8-6.3,4.1-10.4,4.1c-3.4,0-6.1-1-8-3C102.3,48.9,101.4,46.2,101.5,42.6z"/>
	<path class="st1" d="M153.8,26.7c-1.2,0-3.2,1.8-6.3,5.3l-2.6,3.2l-5.1,6.6c-1.2,2.3-2.2,4.3-2.9,5.8l-1.7,3.7
		c-0.4,0.9-0.8,1.5-1.2,1.9s-0.8,0.6-1.3,0.6s-1.1-0.1-1.6-0.3c-0.5-0.2-1-0.5-1.3-0.8c-0.8-0.7-1.2-1.4-1.2-2.2
		c0-0.3,0.2-0.9,0.7-1.9l1.3-2.6c4-8.1,7.5-18.5,10.8-31c1.2-4.6,2-8.8,2.6-12.4c0.2-1.8,1.1-2.7,2.6-2.7c1,0,1.8,0.2,2.4,0.7
		c1.2,0.9,1.8,1.9,1.8,2.9s-0.2,2.2-0.4,3.5c-0.3,1.3-0.6,2.7-1,4.2c-0.4,1.5-0.9,3.1-1.4,4.8c-1.4,4.3-2.4,7.3-3.1,9.2
		c-2.1,5.7-3.4,9-3.8,10c0.3-0.4,0.7-0.9,1.2-1.6c3.9-5.1,6.2-8.1,7.1-9.1c0.9-1,1.7-1.7,2.3-2.3c1.3-1.2,3-1.7,5.1-1.7
		c1.7,0,3,0.6,4,1.7c1,1.1,1.4,2.3,1.4,3.5s-0.1,2.4-0.4,3.5c-0.3,1-0.6,2.1-1.1,3.1c-0.4,1.1-0.9,2.1-1.5,3.3l-1.6,3.3
		c-1.5,3.4-2.2,5.9-2.2,7.5c0,1.1,0.5,1.7,1.4,1.7c0.9,0,1.7-0.2,2.4-0.6s1.2-0.6,1.4-0.6c0.4,0,0.7,0.2,0.7,0.7
		c0,1.9-1,3.5-2.9,4.7c-1.3,0.9-2.5,1.3-3.6,1.3s-2-0.1-2.7-0.3c-0.7-0.2-1.3-0.6-1.9-1.1c-1.2-1.1-1.9-2.8-1.9-5
		c0-2.4,0.8-5.4,2.3-9l3.4-7.3c0.7-1.4,1-2.4,1-3.2C155.1,27.1,154.6,26.7,153.8,26.7z"/>
	<path class="st1" d="M168.9,51.4c-0.9-0.8-1.6-1.9-2.1-3.2c-0.5-1.3-0.8-2.8-0.8-4.6s0.2-3.6,0.6-5.4c0.5-1.8,1.1-3.6,1.9-5.3
		c0.8-1.7,1.8-3.3,3-4.8c1.2-1.5,2.5-2.8,3.9-3.9c3.1-2.4,6.3-3.6,9.6-3.6c4.4,0,7.3,1.9,8.9,5.7c1.1,2.8,1.2,6.1,0.2,10.1
		c-0.9,3.6-2.5,6.9-4.9,10c-2.3,3-5.1,5.2-8.3,6.4c-1.6,0.6-3.2,1-4.7,1c-1.6,0-2.9-0.2-4.2-0.6C170.8,52.8,169.8,52.2,168.9,51.4z
		 M174.9,36c-0.6,1.6-1.1,3.2-1.5,4.8s-0.5,3.2-0.5,4.7c0,1.5,0.2,2.6,0.7,3.5c0.4,0.8,1.1,1.3,2.1,1.3s1.9-0.3,2.9-1
		c0.9-0.7,1.9-1.5,2.7-2.7s1.7-2.4,2.5-3.8c0.8-1.4,1.5-2.9,2.1-4.5c1.3-3.4,1.9-6.4,1.9-9.1c0-2.3-0.5-3.8-1.4-4.4
		c-0.4-0.3-0.9-0.4-1.6-0.4s-1.5,0.3-2.4,0.9s-1.8,1.5-2.7,2.5s-1.7,2.3-2.6,3.7C176.3,32.9,175.6,34.4,174.9,36z"/>
	<path class="st1" d="M198.2,42.6c0-1.8,0.3-3.7,0.9-5.5c0.5-1.8,1.3-3.6,2.2-5.2c0.9-1.6,2-3.1,3.2-4.5c1.2-1.4,2.6-2.6,4-3.6
		c3-2.1,6.3-3.1,9.6-3.1c3.5,0,5.8,1.4,7.1,4.2c0.4,1,0.6,2.1,0.6,3.4c0,1.3-0.2,2.4-0.6,3.5c-0.4,1-0.9,2-1.4,2.8
		c-1.3,1.9-2.6,2.8-3.9,2.8c-1.5,0-2.5-0.4-3.2-1.2c-0.6-0.7-0.8-1.5-0.6-2.4c0.1-0.3,0.3-0.5,0.6-0.7c0.3-0.2,0.7-0.6,1.2-1.1
		c1.4-1.4,2.1-3.1,2.2-5c0-1.3-0.8-2-2.4-2c-1.8,0-3.6,1-5.6,3c-2.8,2.9-4.8,6.6-6,11.1c-1,3.9-0.8,6.8,0.6,8.6
		c0.8,1.1,1.9,1.6,3.4,1.6c2.4,0,4.7-0.8,6.9-2.5c0.7-0.5,1.2-1.1,1.6-1.6c0.4-0.5,0.8-0.8,1.2-0.8c0.4,0,0.7,0.2,0.9,0.5
		c0.2,0.3,0.4,0.8,0.4,1.3c0,1.2-0.6,2.5-1.7,3.7c-2.9,2.8-6.3,4.1-10.4,4.1c-3.4,0-6.1-1-8-3C199,48.9,198.1,46.2,198.2,42.6z"/>
	<path class="st1" d="M231.5,51.4c-0.9-0.8-1.6-1.9-2.1-3.2c-0.5-1.3-0.8-2.8-0.8-4.6s0.2-3.6,0.6-5.4c0.5-1.8,1.1-3.6,1.9-5.3
		c0.8-1.7,1.8-3.3,3-4.8c1.2-1.5,2.5-2.8,3.9-3.9c3.1-2.4,6.3-3.6,9.6-3.6c4.4,0,7.3,1.9,8.9,5.7c1.1,2.8,1.2,6.1,0.2,10.1
		c-0.9,3.6-2.5,6.9-4.9,10c-2.4,3-5.1,5.2-8.3,6.4c-1.6,0.6-3.2,1-4.7,1c-1.6,0-2.9-0.2-4.2-0.6C233.5,52.8,232.4,52.2,231.5,51.4z
		 M237.6,36c-0.6,1.6-1.1,3.2-1.5,4.8s-0.5,3.2-0.5,4.7c0,1.5,0.2,2.6,0.7,3.5c0.4,0.8,1.1,1.3,2.1,1.3s1.9-0.3,2.9-1
		c0.9-0.7,1.9-1.5,2.7-2.7s1.7-2.4,2.5-3.8s1.5-2.9,2.1-4.5c1.3-3.4,1.9-6.4,1.9-9.1c0-2.3-0.5-3.8-1.4-4.4
		c-0.4-0.3-0.9-0.4-1.6-0.4s-1.5,0.3-2.4,0.9s-1.8,1.5-2.7,2.5s-1.7,2.3-2.6,3.7C239,32.9,238.2,34.4,237.6,36z"/>
	<path class="st1" d="M262.6,52.2c-0.5-0.5-1-1.3-1.3-2.1c-0.3-0.9-0.5-1.9-0.5-3s0.3-2.7,0.8-4.6c0.5-1.9,1.2-4.1,2-6.5l2.7-7.9
		c3.8-11,6-19.5,6.6-25.5c0.2-1.8,1.1-2.7,2.6-2.7c1,0,1.8,0.2,2.4,0.7c1.2,0.9,1.8,2,1.8,3.1c0,1.1-0.2,2.5-0.6,4.2
		s-0.8,3.4-1.4,5.4c-0.6,1.9-1.2,4-2,6.1l-4.4,12.9c-2.5,7.3-3.8,12-3.8,14.2c0,1.1,0.5,1.7,1.4,1.7c0.9,0,1.7-0.2,2.4-0.6
		c0.7-0.4,1.2-0.6,1.4-0.6c0.4,0,0.7,0.2,0.7,0.7c0,1.9-1,3.5-2.9,4.7c-1.3,0.9-2.5,1.3-3.5,1.3s-1.9-0.1-2.6-0.4
		C263.7,53.2,263.1,52.8,262.6,52.2z"/>
	<path class="st1" d="M303.7,45.1c0,1.9,0.7,2.9,2.1,2.9c1,0,1.7-0.1,2.4-0.4c0.6-0.3,1-0.4,1.3-0.4c0.4,0,0.7,0.2,0.7,0.7
		c0,1.8-1,3.4-2.9,4.7c-2,1.4-4.1,1.7-6.2,1c-1.4-0.5-2.4-1.5-3-3.1c-0.3-0.8-0.5-1.6-0.5-2.3c0-1.1,0.1-2.3,0.3-3.5
		c-2,4-4.4,6.8-7.3,8.3c-1.2,0.6-2.4,0.9-3.7,0.9s-2.5-0.3-3.4-0.8c-1-0.5-1.8-1.3-2.5-2.2c-1.4-2-2-4.5-1.9-7.5
		c0.1-3.8,1.2-7.5,3.3-11.1c1.9-3.4,4.4-6.1,7.3-8.3c2.9-2.2,5.7-3.3,8.3-3.3c2.6,0,4.6,1.2,6.2,3.5c1.5-2.3,2.8-3.5,3.9-3.5
		c1.2,0,2.1,0.2,2.7,0.7c1.2,0.8,1.6,1.6,1.2,2.2c-5.3,10.9-8,17.6-8.2,20.3C303.7,44.2,303.7,44.6,303.7,45.1z M286.1,45.2
		c0,2.5,0.8,3.8,2.4,3.8c1.2,0,2.8-1.1,4.6-3.2c2.7-3.1,5-7.3,7.1-12.6c0.7-1.6,1.2-3.3,1.6-5c-0.1-1.4-0.7-2.5-1.8-3.2
		c-0.4-0.2-0.9-0.3-1.7-0.3c-0.8,0-1.6,0.3-2.6,0.8c-1,0.5-2,1.3-2.9,2.3s-1.8,2.1-2.6,3.4c-0.8,1.3-1.5,2.7-2.1,4.2
		C286.7,38.7,286.1,42,286.1,45.2z"/>
	<path class="st1" d="M331.8,45.2c0.6,0,0.9,0.4,0.9,1.2c0,0.7-0.2,1.4-0.6,2c-0.6,1.2-1.7,2.4-3.4,3.5c-1.9,1.2-3.9,1.9-5.9,1.9
		c-3.4,0-5.6-1.5-6.5-4.6c-1.1-3.6,0.5-11.3,4.9-23c-2.4-0.2-3.8-0.6-4-1.3c-0.1-0.2-0.1-0.4-0.1-0.6c0-0.2,0.1-0.5,0.3-0.8
		c0.2-0.3,0.5-0.6,0.8-0.9c0.7-0.6,1.5-0.9,2.3-0.9h2.5c2.3-5.4,3.9-8.4,4.9-9.1c0.5-0.3,1-0.5,1.6-0.5s1,0.1,1.4,0.2
		c0.4,0.1,0.7,0.4,1,0.6c0.7,0.6,1,1.3,1,2.1c0,0.4-0.1,0.9-0.4,1.5l-2.4,5.1h0.8c1.3,0,2.4,0,3.2,0l1.8,0c0.4,0,0.9,0,1.5,0
		c0.6,0,0.9,0.2,0.9,0.7c0,2.8-3.3,4.2-9.9,4.2h-0.3l-2.2,5.6c-2.4,6.6-3.6,11.2-3.6,13.9c0,0.7,0.2,1.3,0.5,1.7
		c0.3,0.4,1,0.6,1.9,0.6s1.8-0.2,2.5-0.5s1.4-0.7,2-1.1s1.1-0.7,1.5-1.1C331.2,45.4,331.5,45.2,331.8,45.2z"/>
	<path class="st1" d="M337,42.4c0.1-1.8,0.4-3.6,0.9-5.3c0.5-1.7,1.2-3.3,2.1-4.9s1.9-3.1,3.1-4.5c1.2-1.4,2.5-2.6,3.9-3.7
		c3-2.3,6.1-3.4,9.2-3.4c3.6,0,6,1.5,7.2,4.5c0.4,1,0.6,2.2,0.6,3.6c0,1.4-0.3,2.7-0.8,3.8c-0.5,1.2-1.2,2.2-2.1,3.2
		c-0.9,1-2,1.8-3.2,2.6c-1.2,0.8-2.6,1.4-4,1.9c-3,1.1-6.2,1.6-9.6,1.7c-0.1,0.3-0.1,0.7-0.2,1.3c0,0.6,0,1.3,0.2,2
		c0.1,0.7,0.4,1.4,0.8,2c0.8,1.3,1.9,1.9,3.3,1.9c2.5,0,4.8-0.7,7.2-2.2c0.8-0.5,1.5-1,2-1.5c0.5-0.5,1-0.8,1.3-0.8s0.7,0.2,1,0.7
		c0.3,0.5,0.4,1,0.4,1.5c0,1.1-0.3,2.1-1,2.9c-2.7,2.7-6.6,4-11.9,4c-3.1,0-5.6-0.9-7.5-2.8C337.9,48.9,336.9,46,337,42.4z
		 M355.5,24.9c-2.2,0-4.4,1.5-6.4,4.6c-1.7,2.6-3.1,5.7-4.2,9.3c3.5-0.4,6.6-1.8,9.2-4.2c2.4-2.3,3.6-4.5,3.6-6.6
		S357,24.9,355.5,24.9z"/>
	<path class="st1" d="M366.6,44.5c0-1.2,0.1-2.4,0.3-3.5c0.2-1.1,0.4-2.3,0.7-3.4c0.3-1.1,0.6-2.3,1-3.4l3.6-10.9
		c2.8-8.8,4.6-15.7,5.3-20.6c0.2-1.8,1.1-2.7,2.6-2.7c0.9,0,1.6,0.2,2.3,0.7c1.1,0.9,1.7,1.9,1.6,2.9c0,1-0.2,2.2-0.4,3.4
		c-0.3,1.3-0.6,2.6-1,4.1c-0.4,1.5-0.9,3-1.4,4.7c-1.4,4.2-2.5,7.2-3.2,9.1l-1.8,4.7c1.8-2.9,3.3-4.8,4.5-5.9
		c2.3-2.1,4.8-3.1,7.3-3.1c3.7,0,6.2,1.9,7.4,5.8c0.4,1.3,0.6,3,0.6,5s-0.3,4-0.9,5.9c-0.6,2-1.4,3.8-2.4,5.5
		c-1,1.7-2.2,3.2-3.5,4.6s-2.7,2.5-4.2,3.5c-3.1,2-6.1,3-9,3c-2.9,0-5.2-0.9-6.9-2.7C367.5,49.4,366.6,47.2,366.6,44.5z M375.5,49.7
		c2,0,4-0.9,6.1-2.7c3.1-2.7,5.2-6.6,6.3-11.6c0.4-1.7,0.5-3.4,0.5-5.2s-0.2-3-0.6-3.8c-0.4-0.7-1-1.1-1.9-1.1s-1.7,0.3-2.6,1
		c-0.9,0.7-1.9,1.6-2.9,2.7c-1,1.1-2,2.4-3,3.8c-1,1.5-1.9,2.9-2.6,4.5c-1.7,3.4-2.6,6.3-2.6,8.7C372.4,48.5,373.4,49.7,375.5,49.7z
		"/>
	<path class="st1" d="M401.5,51.4c-0.9-0.8-1.6-1.9-2.1-3.2c-0.5-1.3-0.8-2.8-0.8-4.6s0.2-3.6,0.6-5.4c0.5-1.8,1.1-3.6,1.9-5.3
		c0.8-1.7,1.8-3.3,3-4.8c1.2-1.5,2.5-2.8,3.9-3.9c3.1-2.4,6.3-3.6,9.6-3.6c4.4,0,7.3,1.9,8.9,5.7c1.1,2.8,1.2,6.1,0.2,10.1
		c-0.9,3.6-2.5,6.9-4.9,10c-2.4,3-5.1,5.2-8.3,6.4c-1.6,0.6-3.2,1-4.7,1c-1.6,0-2.9-0.2-4.2-0.6C403.4,52.8,402.4,52.2,401.5,51.4z
		 M407.5,36c-0.6,1.6-1.1,3.2-1.5,4.8s-0.5,3.2-0.5,4.7c0,1.5,0.2,2.6,0.7,3.5c0.4,0.8,1.1,1.3,2.1,1.3s1.9-0.3,2.9-1
		c0.9-0.7,1.9-1.5,2.7-2.7s1.7-2.4,2.5-3.8c0.8-1.4,1.5-2.9,2.1-4.5c1.3-3.4,1.9-6.4,1.9-9.1c0-2.3-0.5-3.8-1.4-4.4
		c-0.4-0.3-0.9-0.4-1.6-0.4s-1.5,0.3-2.4,0.9s-1.8,1.5-2.7,2.5c-0.9,1.1-1.7,2.3-2.6,3.7C408.9,32.9,408.2,34.4,407.5,36z"/>
	<path class="st1" d="M454.5,45.1c0,1.9,0.7,2.9,2.1,2.9c1,0,1.7-0.1,2.4-0.4c0.6-0.3,1-0.4,1.3-0.4c0.4,0,0.7,0.2,0.7,0.7
		c0,1.8-1,3.4-2.9,4.7c-2,1.4-4.1,1.7-6.2,1c-1.4-0.5-2.4-1.5-3-3.1c-0.3-0.8-0.5-1.6-0.5-2.3c0-1.1,0.1-2.3,0.3-3.5
		c-2,4-4.4,6.8-7.3,8.3c-1.2,0.6-2.4,0.9-3.7,0.9s-2.5-0.3-3.4-0.8c-1-0.5-1.8-1.3-2.5-2.2c-1.4-2-2-4.5-1.9-7.5
		c0.1-3.8,1.2-7.5,3.3-11.1c1.9-3.4,4.4-6.1,7.3-8.3c2.9-2.2,5.7-3.3,8.3-3.3c2.6,0,4.6,1.2,6.2,3.5c1.5-2.3,2.8-3.5,3.9-3.5
		c1.2,0,2.1,0.2,2.7,0.7c1.2,0.8,1.6,1.6,1.2,2.2c-5.3,10.9-8,17.6-8.2,20.3C454.5,44.2,454.5,44.6,454.5,45.1z M436.8,45.2
		c0,2.5,0.8,3.8,2.4,3.8c1.2,0,2.8-1.1,4.6-3.2c2.7-3.1,5-7.3,7.1-12.6c0.7-1.6,1.2-3.3,1.6-5c-0.1-1.4-0.7-2.5-1.8-3.2
		c-0.4-0.2-0.9-0.3-1.7-0.3c-0.8,0-1.6,0.3-2.6,0.8c-1,0.5-2,1.3-2.9,2.3s-1.8,2.1-2.6,3.4c-0.8,1.3-1.5,2.7-2.1,4.2
		C437.5,38.7,436.8,42,436.8,45.2z"/>
	<path class="st1" d="M465.3,52.7c-0.4-0.3-0.8-0.7-1-1.1s-0.4-0.7-0.4-1c0-0.3,0-0.6,0.2-1c0.1-0.4,0.3-0.9,0.6-1.5
		c4.3-10.6,6.5-17.8,6.5-21.4c-0.1-1-0.4-1.7-1-2.2l-0.6-0.4c-0.2-0.1-0.3-0.4-0.3-0.8c0-0.4,0.1-0.7,0.4-1.1
		c0.3-0.3,0.6-0.6,1.1-0.9c0.9-0.5,1.8-0.7,2.8-0.7s1.7,0.1,2.3,0.3c0.5,0.2,1,0.5,1.4,0.9c0.8,0.8,1.2,1.6,1.2,2.4
		c0,0.8-0.1,1.7-0.3,2.6c-0.2,0.9-0.4,1.7-0.7,2.6s-0.6,1.6-0.8,2.4c-0.3,0.8-0.5,1.3-0.5,1.7c-0.2,0.7-0.2,1.2-0.2,1.4
		c0.5-0.4,0.8-0.9,0.9-1.3l1.2-2.3c2.8-5,5.4-8.2,8.1-9.8c0.8-0.4,1.7-0.7,2.7-0.7c1.1,0,1.9,0.4,2.6,1.1c0.7,0.8,1,1.6,1,2.5
		c0,0.9,0,1.7-0.2,2.3c-0.2,0.6-0.4,1.2-0.7,1.7c-0.7,1.2-1.5,1.8-2.5,1.8c-0.3,0-0.5-0.1-0.8-0.3l-0.7-0.6c-0.7-0.6-1.4-0.9-2-0.9
		c-0.6,0-1.4,0.4-2.3,1.3c-0.9,0.8-1.9,1.9-2.9,3.3c-3.3,4.4-6.1,9.4-8.2,14.9l-1.4,3.7c-0.4,0.9-0.7,1.6-1,2
		c-0.3,0.4-0.7,0.6-1.2,0.6c-0.5,0-1.1-0.1-1.6-0.3C466.2,53.3,465.7,53.1,465.3,52.7z"/>
	<path class="st1" d="M521.4,47.1c0.4,0,0.7,0.2,0.7,0.7c0,1.8-0.9,3.4-2.8,4.7c-1.2,0.9-2.4,1.3-3.5,1.3c-1.1,0-2-0.1-2.7-0.4
		c-0.7-0.3-1.2-0.7-1.8-1.2c-1.2-1.3-1.8-3-1.8-5.2c0-0.4,0.1-1.2,0.3-2.1c-1.7,2.6-3.2,4.5-4.4,5.6c-2.5,2.2-4.9,3.4-7.3,3.4
		c-3.7,0-6.2-1.7-7.4-5.1c-0.4-1.2-0.6-2.8-0.6-4.7s0.3-3.8,0.9-5.7c0.6-1.9,1.3-3.8,2.3-5.5c1-1.7,2.1-3.3,3.4-4.8
		c1.3-1.5,2.7-2.8,4.1-3.9c3.1-2.3,5.9-3.5,8.4-3.5c2.5,0,4.5,1,6,3c3.7-12.6,6.5-20,8.3-22.3c0.8-0.9,1.6-1.4,2.5-1.4
		c1.4,0,2.5,0.4,3.3,1.2c0.2,0.3,0.3,0.6,0.3,0.8s-0.2,0.8-0.5,1.5c-0.3,0.7-0.8,1.9-1.5,3.6c-1.9,5-3.2,8.6-4,10.9
		c-1.9,5.9-3.3,10-3.9,12.2l-1.7,5.9c-1.5,5.2-2.3,8.5-2.3,10c0,1.4,0.5,2.1,1.6,2.1c1,0,1.7-0.1,2.3-0.4l1.2-0.6
		C520.9,47.2,521.2,47.1,521.4,47.1z M499.6,49.1c2.2,0,4.7-2.1,7.5-6.4c2.9-4.4,5-9.2,6.2-14.4c-0.1-1.4-0.7-2.5-1.8-3.2
		c-0.4-0.2-1-0.3-1.7-0.3s-1.7,0.3-2.7,0.8c-1,0.6-2,1.3-3,2.3c-1,1-1.9,2.1-2.7,3.3c-0.8,1.3-1.6,2.6-2.2,4.1c-1.3,3.1-2,6.2-2,9.2
		C497.1,47.6,497.9,49.1,499.6,49.1z"/>
</g>
<g>
	<path class="st2" d="M11.6,54.4l-8,0.1V8.1h8V54.4z"/>
	<path class="st2" d="M47.2,36.7c0,7.6-1.4,12.7-4.3,15.3c-2.4,2.2-5.9,3.3-10.5,3.3c-5.9,0-9.8-1.7-11.9-5.2
		c-1.9-3.2-2.9-7.6-2.9-13.4c0-5.4,1-9.7,2.9-12.7c2.1-3.4,6-5.2,11.7-5.2c5.6,0,9.6,1.5,11.8,4.5C46.1,26.3,47.2,30.8,47.2,36.7z
		 M39.2,38.5v-3.2c0-3-0.4-5.4-1.3-7c-0.9-1.6-2.7-2.4-5.5-2.4c-4.5,0-6.8,3-6.8,9.1v3.2c0,6.5,2.3,9.8,6.8,9.8
		c2.9,0,4.8-1.1,5.7-3.3C38.8,43.1,39.2,41,39.2,38.5z"/>
	<path class="st2" d="M71.4,19.5l8-0.5v33.8c0,3.9-1.1,6.9-3.3,9c-2.2,2.1-5.5,3.1-9.8,3.1c-3.3,0-6.2-0.7-8.7-2
		c-1.3-0.7-2.4-1.6-3.1-3c-0.8-1.3-1.2-2.9-1.2-4.7l7.5-0.4c0,1.1,0.4,2,1.2,2.5c0.8,0.5,2.2,0.7,4.2,0.7c2,0,3.3-0.5,4.1-1.5
		c0.7-1,1.1-2.4,1.1-4.2l0.3-5.3L63,51.7c-4.7,0-7.9-1.6-9.5-4.8c-1.5-2.8-2.2-6.3-2.2-10.4c0-4.9,0.4-8.3,1.1-10.3
		c0.8-2.2,1.9-3.8,3.3-4.8c1.8-1.2,4.3-1.8,7.3-1.8H71.4z M71.4,40.1V26.7h-6.1c-2.3,0-3.9,0.8-4.7,2.3c-0.9,1.6-1.3,3.7-1.3,6.5
		c0,2.8,0.4,4.8,1.3,5.9c0.9,1.2,2.5,1.8,4.7,1.8L71.4,40.1z"/>
	<path class="st2" d="M96.1,46.1c0.6,0.6,1,2,1,4c0,2.1-0.3,3.4-1,4.1c-0.6,0.7-2,1-4,1c-2.1,0-3.4-0.3-4.1-1c-0.7-0.7-1-2-1-4.1
		c0-2.1,0.3-3.4,1-4c0.7-0.6,2-1,4.1-1C94.1,45.2,95.5,45.5,96.1,46.1z"/>
	<path class="st2" d="M122.8,41.5l7.3-0.1c0,0.3-0.1,0.9-0.1,1.8c0,0.9-0.1,1.4-0.1,1.8c0,0.3-0.1,0.8-0.2,1.4
		c-0.1,0.7-0.2,1.1-0.3,1.4c-0.1,0.3-0.2,0.7-0.4,1.2c-0.7,2.1-2.8,3.8-6,5.1c-2.1,0.7-4.3,1.1-6.6,1.1s-4.3-0.4-6.2-1.1
		s-3.3-1.7-4.4-2.8c-2.4-2.5-3.6-7.3-3.6-14.3c0-7,1.2-11.8,3.6-14.3c1.1-1.1,2.5-2.1,4.4-2.8c1.8-0.7,3.9-1.1,6.2-1.1
		c4.4,0,7.8,1.1,10.1,3.3c2.3,2.2,3.4,5.3,3.4,9.2h-7.3c0-1.8-0.5-3.2-1.4-4c-0.9-0.9-2.6-1.3-5-1.3c-2.4,0-4.1,0.8-4.9,2.3
		c-0.8,1.5-1.2,3.8-1.2,6.8v3.2c0,4.9,0.9,7.9,2.8,9c0.9,0.5,2,0.8,3.4,0.8c1.4,0,2.5-0.1,3.4-0.4c0.9-0.3,1.5-0.7,1.9-1.4
		c0.4-0.7,0.6-1.3,0.8-1.9C122.7,43.7,122.7,42.8,122.8,41.5z"/>
	<path class="st2" d="M163.7,54.4h-8v-22c0-3.8-1.5-5.7-4.4-5.7l-7.6,3v24.7h-8V8.1h8v15.3l10.2-4.6c3.6,0,6.2,1,7.7,3.1
		c1.5,2.1,2.2,4.9,2.2,8.6V54.4z"/>
	<path class="st2" d="M198.8,36.7c0,7.6-1.4,12.7-4.3,15.3c-2.4,2.2-5.9,3.3-10.5,3.3c-5.9,0-9.8-1.7-11.9-5.2
		c-1.9-3.2-2.9-7.6-2.9-13.4c0-5.4,1-9.7,2.9-12.7c2.1-3.4,6-5.2,11.7-5.2c5.6,0,9.6,1.5,11.8,4.5C197.7,26.3,198.8,30.8,198.8,36.7
		z M190.8,38.5v-3.2c0-3-0.4-5.4-1.3-7c-0.9-1.6-2.7-2.4-5.5-2.4c-4.5,0-6.8,3-6.8,9.1v3.2c0,6.5,2.3,9.8,6.8,9.8
		c2.9,0,4.8-1.1,5.7-3.3C190.4,43.1,190.8,41,190.8,38.5z"/>
	<path class="st2" d="M223.7,41.5l7.3-0.1c0,0.3-0.1,0.9-0.1,1.8c0,0.9-0.1,1.4-0.1,1.8c0,0.3-0.1,0.8-0.2,1.4
		c-0.1,0.7-0.2,1.1-0.3,1.4c-0.1,0.3-0.2,0.7-0.4,1.2c-0.7,2.1-2.8,3.8-6,5.1c-2.1,0.7-4.3,1.1-6.6,1.1s-4.3-0.4-6.2-1.1
		s-3.3-1.7-4.4-2.8c-2.4-2.5-3.6-7.3-3.6-14.3c0-7,1.2-11.8,3.6-14.3c1.1-1.1,2.5-2.1,4.4-2.8c1.8-0.7,3.9-1.1,6.2-1.1
		c4.4,0,7.8,1.1,10.1,3.3c2.3,2.2,3.4,5.3,3.4,9.2h-7.3c0-1.8-0.5-3.2-1.4-4c-0.9-0.9-2.6-1.3-5-1.3c-2.4,0-4.1,0.8-4.9,2.3
		c-0.8,1.5-1.2,3.8-1.2,6.8v3.2c0,4.9,0.9,7.9,2.8,9c0.9,0.5,2,0.8,3.4,0.8c1.4,0,2.5-0.1,3.4-0.4c0.9-0.3,1.5-0.7,1.9-1.4
		c0.4-0.7,0.6-1.3,0.8-1.9C223.6,43.7,223.6,42.8,223.7,41.5z"/>
	<path class="st2" d="M264.8,36.7c0,7.6-1.4,12.7-4.3,15.3c-2.4,2.2-5.9,3.3-10.5,3.3c-5.9,0-9.8-1.7-11.9-5.2
		c-1.9-3.2-2.9-7.6-2.9-13.4c0-5.4,1-9.7,2.9-12.7c2.1-3.4,6-5.2,11.7-5.2c5.6,0,9.6,1.5,11.8,4.5C263.7,26.3,264.8,30.8,264.8,36.7
		z M256.8,38.5v-3.2c0-3-0.4-5.4-1.3-7c-0.9-1.6-2.7-2.4-5.5-2.4c-4.5,0-6.8,3-6.8,9.1v3.2c0,6.5,2.3,9.8,6.8,9.8
		c2.9,0,4.8-1.1,5.7-3.3C256.4,43.1,256.8,41,256.8,38.5z"/>
	<path class="st2" d="M278.8,54.4l-8,0.1V8.1h8V54.4z"/>
	<path class="st2" d="M312.4,54.4h-5.4l-2.5-4.2l-8.6,4.6c-4.8,0-8-1.7-9.6-5.2c-0.8-1.7-1.4-3.5-1.7-5.5c-0.3-1.9-0.5-4-0.5-6.1
		c0-2.1,0-3.7,0.1-4.7c0-1,0.1-2.2,0.3-3.5c0.2-1.3,0.4-2.5,0.7-3.4c0.3-0.9,0.7-1.8,1.3-2.8c0.6-1,1.3-1.7,2.1-2.3
		c1.8-1.3,4.2-1.9,7.2-1.9h8.4l8-0.5V54.4z M304.4,43.2V26.7h-6.1c-2.3,0-3.8,0.9-4.7,2.6c-0.9,1.7-1.3,4.3-1.3,7.7
		c0,3.4,0.4,5.8,1.3,7.2c0.8,1.4,2.4,2.1,4.8,2.1L304.4,43.2z"/>
	<path class="st2" d="M335.4,54.4h-5c-3,0-5.3-0.9-6.9-2.7c-1.6-1.8-2.4-4-2.4-6.5V26.8h-3.4v-6.1h3.4v-6.9h8v6.9h5.7v6.1h-5.7v18
		c0,1.9,0.9,2.9,2.8,2.9h3.5V54.4z"/>
	<path class="st2" d="M367.6,38.7H347c0,3.2,0.5,5.5,1.5,7c1,1.5,3,2.2,6.1,2.2c2,0,3.4-0.6,4.4-1.9c0.9-1.3,1.4-2.5,1.4-3.6h7.2
		c0,4.4-1.2,7.6-3.5,9.7c-2.4,2.1-5.5,3.1-9.4,3.1c-3.9,0-6.9-0.6-9-1.7c-4.4-2.3-6.6-8.3-6.6-18c0-5.8,1.3-10,3.8-12.7
		c2.5-2.7,6.3-4,11.5-4c8.9,0,13.4,4.9,13.4,14.8C367.7,34.7,367.6,36.4,367.6,38.7z M347.2,33.2h13.2c0-2.7-0.5-4.7-1.5-5.9
		c-1-1.2-2.6-1.8-4.7-1.8c-2.1,0-3.8,0.6-5.1,1.9C347.9,28.6,347.2,30.5,347.2,33.2z"/>
	<path class="st2" d="M389.9,54.5l-7-0.1c-3.1,0-5.4-0.9-7-2.7c-1.6-1.8-2.4-4-2.4-6.5V8.1h8v15.5l9.5-4.4c3.7,0,6.3,1,8.1,3
		c1.5,1.8,2.5,4.6,2.8,8.6c0.1,1.6,0.2,3.7,0.2,6.1C402.2,48.6,398.1,54.5,389.9,54.5z M383.6,47.6h3.9c4.4,0,6.7-3.6,6.7-10.8
		c0-3.7-0.3-6.2-1-7.6c-0.7-1.4-2.1-2.2-4.4-2.2l-7.2,3.9v13.9C381.6,46.4,382.2,47.3,383.6,47.6z"/>
	<path class="st2" d="M436.5,36.7c0,7.6-1.4,12.7-4.3,15.3c-2.4,2.2-5.9,3.3-10.5,3.3c-5.9,0-9.8-1.7-11.9-5.2
		c-1.9-3.2-2.9-7.6-2.9-13.4c0-5.4,1-9.7,2.9-12.7c2.1-3.4,6-5.2,11.7-5.2c5.6,0,9.6,1.5,11.8,4.5C435.4,26.3,436.5,30.8,436.5,36.7
		z M428.5,38.5v-3.2c0-3-0.4-5.4-1.3-7c-0.9-1.6-2.7-2.4-5.5-2.4c-4.5,0-6.8,3-6.8,9.1v3.2c0,6.5,2.3,9.8,6.8,9.8
		c2.9,0,4.8-1.1,5.7-3.3C428.1,43.1,428.5,41,428.5,38.5z"/>
	<path class="st2" d="M468.5,54.4h-5.4l-2.5-4.2l-8.6,4.6c-4.8,0-8-1.7-9.6-5.2c-0.8-1.7-1.4-3.5-1.7-5.5c-0.3-1.9-0.5-4-0.5-6.1
		c0-2.1,0-3.7,0.1-4.7c0-1,0.1-2.2,0.3-3.5c0.2-1.3,0.4-2.5,0.7-3.4c0.3-0.9,0.7-1.8,1.3-2.8c0.6-1,1.3-1.7,2.1-2.3
		c1.8-1.3,4.2-1.9,7.2-1.9h8.4l8-0.5V54.4z M460.5,43.2V26.7h-6.1c-2.3,0-3.8,0.9-4.7,2.6c-0.9,1.7-1.3,4.3-1.3,7.7
		c0,3.4,0.4,5.8,1.3,7.2c0.8,1.4,2.4,2.1,4.8,2.1L460.5,43.2z"/>
	<path class="st2" d="M495.5,19.4l-2.2,7.9c-0.6-0.2-1.3-0.4-2.1-0.4c-2.1,0-4.6,0.9-7.6,2.6v24.9h-8V19.2h6l1.8,3.1l8.5-3.5
		c0.4,0,1-0.1,1.7-0.1C494.3,18.7,494.9,18.9,495.5,19.4z"/>
	<path class="st2" d="M525.9,54.4h-5.4l-2.5-4.2l-8.6,4.6c-4.8,0-8-1.7-9.6-5.2c-0.8-1.7-1.4-3.5-1.7-5.5c-0.3-1.9-0.5-4-0.5-6.1
		c0-2.1,0-3.7,0.1-4.7c0-1,0.1-2.2,0.3-3.5c0.2-1.3,0.4-2.5,0.7-3.4c0.3-0.9,0.7-1.8,1.3-2.8c0.6-1,1.3-1.7,2.1-2.3
		c1.8-1.3,4.2-1.9,7.2-1.9h8.4V8.1h8V54.4z M517.9,43.2V26.7h-6.1c-2.3,0-3.8,0.9-4.7,2.6c-0.9,1.7-1.3,4.3-1.3,7.7
		c0,3.4,0.4,5.8,1.3,7.2c0.8,1.4,2.4,2.1,4.8,2.1L517.9,43.2z"/>
</g>
</svg>
